<?xml version='1.0' encoding='utf-8'?>
<svg xmlns="http://www.w3.org/2000/svg" viewBox="0 0 4095 4095"> <path transform="scale(4)" d="m310.94 935.93 13.462 8.354c9.647 5.345 19.864 9.373 30.341 12.739 5.738 1.844 11.795 2.637 17.467 4.556l4.541 0.73-3.92 16.192c-23.268-4.742-45.813-9.973-67.47-20.006 0.046-1.789 0.843-3.733 1.306-5.473l2.628-10.4 1.645-6.692z" fill="#99C3C5"/> <path transform="scale(4)" d="m310.94 935.93 13.462 8.354c9.647 5.345 19.864 9.373 30.341 12.739 5.738 1.844 11.795 2.637 17.467 4.556l-0.455 0.308c-3.434 2.136-14.742-1.666-18.699-2.51-12.055-2.572-23.708-7.974-34.86-13.078-2.927-1.339-6.018-2.298-8.901-3.677l1.645-6.692z" fill="#7FAFB2"/> <path transform="scale(4)" d="m646.14 961.34c24.811-5.972 47.426-13.819 69.001-27.766l1.107 3.645 6.883 20.891c-19.596 10.378-43.002 16.019-64.804 19.546-2.539 0.411-5.839 1.486-8.361 1.295-0.976-4.991-1.682-10.435-3.322-15.245l-0.504-2.366z" fill="#99C3C5"/> <path transform="scale(4)" d="m646.14 961.34c24.811-5.972 47.426-13.819 69.001-27.766l1.107 3.645c-5.276 3.971-11.306 6.993-17.251 9.822-16.927 8.056-34.227 12.419-52.353 16.665l-0.504-2.366z" fill="#7FAFB2"/> <path transform="scale(4)" d="m759.06 484.42c0.247-4.361 1.836-9.432 2.775-13.765l5.887-27.818c7.89 0.118 15.065 1.457 22.782 2.955 16.362 7.199 29.507 21.011 35.951 37.705 7.331 18.992 5.825 39.014-2.495 57.413-8.663 19.155-24.496 35.712-44.389 43.09-15.774 5.85-32.791 6.373-48.865 1.66 5.415-8.197 9.458-18.501 12.796-27.694l17.856-72.631-2.298-0.915z" fill="#F7A68E"/> <path transform="scale(4)" d="m761.36 485.34 2.906-13.609c8.322-2.149 17.345-2.143 24.911 2.353 8.186 4.865 13.239 13.573 15.479 22.632 0.354 1.432 0.633 2.81 0.77 4.282-4.864-7.946-8.225-16.754-18.357-19.197-3.906-0.941-7.972-0.495-11.419 1.627-3.347 2.059-6.899 6.128-8.094 9.993l-0.066 0.631c8.538 3.452 15.468 7.421 19.26 16.169 3.19 7.359 3.042 15.175 0.059 22.596-4.28 10.643-14.386 17.489-24.686 21.517-5.606 2.193-12.665 2.712-18.619 3.637l17.856-72.631z" fill="#E27031"/> <path transform="scale(4)" d="m294.46 897.12c8.39-32.005 20.997-64.222 40.698-91.086 11.585-15.797 25.302-29.35 40.597-41.523 2.777 5.288 3.844 10.917 5.001 16.713l4.066 22.293c1.607 11.589 2.804 23.554 2.989 35.259l-0.758 41.325-3.278 56.887-1.028 18.552c-0.12 2.358-0.642 5.111-0.263 7.426l-5.729-0.653-4.541-0.73c-5.672-1.919-11.729-2.712-17.467-4.556-10.477-3.366-20.694-7.394-30.341-12.739l-13.462-8.354c-6.943-5.19-14.58-10.816-19.507-18.071-1.299-1.912 2.435-17.54 3.023-20.743z" fill="#E27031"/> <path transform="scale(4)" d="m294.46 897.12c3.408 0.709 6.472 2.408 9.694 3.675 7.224 2.84 16.105 2.214 23.502 0.343 33.029-8.356 50.689-44.8 55.094-75.872 0.55-3.883 0.975-7.841 1.132-11.761 0.117-2.883-0.477-7.617 0.94-9.988 1.607 11.589 2.804 23.554 2.989 35.259l-0.758 41.325-3.278 56.887-1.028 18.552c-0.12 2.358-0.642 5.111-0.263 7.426l-5.729-0.653-4.541-0.73c-5.672-1.919-11.729-2.712-17.467-4.556-10.477-3.366-20.694-7.394-30.341-12.739l-13.462-8.354c-6.943-5.19-14.58-10.816-19.507-18.071-1.299-1.912 2.435-17.54 3.023-20.743z" fill="#D44204"/> <path transform="scale(4)" d="m644.34 762.23c9.297 7.604 18.702 15.241 27.231 23.717 31.597 31.401 49.718 71.677 59.322 114.65l3.235 18.642-18.986 14.331c-21.575 13.947-44.19 21.794-69.001 27.766l-4.598 0.837c-0.688-1.848-0.454-4.1-0.592-6.07l-0.956-13.603-3.898-56.757-0.191-16.816 0.047-33.434c0.015-6.262-0.41-12.882 0.445-19.085 0.813-13.105 2.386-25.96 4.539-38.908 0.825-4.958 1.128-10.745 3.403-15.274z" fill="#E27031"/> <path transform="scale(4)" d="m636.4 816.41 0.204 0.581c2.315 6.807 2.74 14.727 4.507 21.8 5.126 20.515 16.714 45.09 34.389 57.671 7.073 5.034 13.061 7.809 21.676 9.241 6.6 1.097 14.276 0.729 20.824-0.525 4.606-0.883 8.699-2.5 12.895-4.579l3.235 18.642-18.986 14.331c-21.575 13.947-44.19 21.794-69.001 27.766l-4.598 0.837c-0.688-1.848-0.454-4.1-0.592-6.07l-0.956-13.603-3.898-56.757-0.191-16.816 0.047-33.434c0.015-6.262-0.41-12.882 0.445-19.085z" fill="#D44204"/> <path transform="scale(4)" d="m554.38 711.29c8.224-1.499 17.731-3.131 25.344-6.696 5.351 4.197 10.011 8.523 13.397 14.507 2.235 3.951 3.692 8.281 5.504 12.43 5.851 2.556 10.447 5.679 15.444 9.621l30.275 21.07c-2.275 4.529-2.578 10.316-3.403 15.274-2.153 12.948-3.726 25.803-4.539 38.908-0.855 6.203-0.43 12.823-0.445 19.085l-0.047 33.434 0.191 16.816 3.898 56.757 0.956 13.603c0.138 1.97-0.096 4.222 0.592 6.07l-0.602 0.595c-0.689 5.725-0.529 11.702-0.385 17.465l-89.493 10.51c-13.776 1.975-28.056 2.113-41.952 1.937-12.156-0.154-24.48-0.454-36.556-1.913l-89.601-10.853-0.046-16.164-0.426-0.789c-0.379-2.315 0.143-5.068 0.263-7.426l1.028-18.552 3.278-56.887 0.758-41.325c-0.185-11.705-1.382-23.67-2.989-35.259l-4.066-22.293c-1.157-5.796-2.224-11.425-5.001-16.713 13.562-10.473 27.402-20.441 42.613-28.437 1.639-1.402 3.627-2.445 5.473-3.556 4.457-12.184 10.621-19.424 21.155-26.975l24.004 5.709c28.721 5.128 56.622 5.053 85.378 0.047z" fill="#EF8C1F"/> <path transform="scale(4)" d="m487.71 875.25c1.63-0.245 3.275-0.471 4.889 0 1.793 0.523 3.709 2.306 4.533 3.951 1.064 2.123 1.104 4.753 0.348 6.967-0.892 2.609-2.817 4.212-5.228 5.375-1.444 0.305-3.646 0.311-5.062-0.197-1.905-0.683-3.374-2.101-4.292-3.893-1.099-2.144-0.957-4.772-0.254-7.017 0.783-2.502 2.897-3.955 5.066-5.186z" fill="#FEFEFE"/> <path transform="scale(4)" d="m527.79 875.25c1.357-0.203 2.648-0.381 4.008-0.095 2.367 0.5 4.473 2.089 5.672 4.183 1.052 1.838 1.258 3.642 0.689 5.673-0.909 3.245-2.525 4.798-5.407 6.413-1.521 0.075-3.24 0.253-4.739-0.047-2.081-0.417-3.749-1.951-4.816-3.722-1.191-1.976-1.719-4.291-1.047-6.546 0.799-2.687 3.294-4.568 5.64-5.859z" fill="#FEFEFE"/> <path transform="scale(4)" d="m519.61 804.44 0.541-0.065c5.274-0.709 15.897-8.216 20.102-5.22 2.678 1.908 5.794 7.284 6.757 10.449l-0.911 1.136-34.096 28.393-38.004-29.734-0.123-0.429c1.783-2.866 3.619-6.137 6.323-8.21 6.761-5.187 15.154 1.008 22.376 1.559l0.678 0.041c0.591 2.762 1.316 4.34 3.786 5.894 1.721 1.082 5.265 1.055 7.183 0.471 2.041-0.622 4.111-2.627 5.388-4.285z" fill="#D44204"/> <path transform="scale(4)" d="m472.56 990.77c0.843-0.09 1.238-2e-3 1.934-0.517l-0.386-81.841c26.091 3.214 50.435 3.313 76.448-0.403l-0.813 56.327-0.332 17.96c-0.035 2.61-0.367 5.56 0.092 8.124l1.565 0.326c-13.776 1.975-28.056 2.113-41.952 1.937-12.156-0.154-24.48-0.454-36.556-1.913z" fill="#E27031"/> <path transform="scale(4)" d="m528.58 934.51c1.413-0.063 3.025-0.222 4.397 0.17 2.138 0.609 4.081 2.281 5.156 4.195 1.134 2.018 1.259 4.868 0.583 7.057-0.858 2.781-3.104 4.367-5.601 5.563-1.246 0.035-2.97 0.254-4.155-0.137-2.191-0.723-4.088-2.63-5.277-4.534-1.174-1.881-1.635-4.141-0.965-6.297 1-3.22 3.123-4.461 5.862-6.017z" fill="#F7CFAA"/> <path transform="scale(4)" d="m487.04 934.51 6.244-8e-3c1.4 0.84 2.986 1.835 3.951 3.172 1.391 1.928 1.851 4.372 1.479 6.689-0.567 3.53-2.438 4.835-5.209 6.849-1.447 0.254-3.28 0.399-4.756 0.278-1.594-0.13-3.424-1.354-4.439-2.572-1.734-2.081-2.536-4.995-2.313-7.668 0.265-3.171 2.749-4.923 5.043-6.74z" fill="#F7CFAA"/> <path transform="scale(4)" d="m614.07 741.16 30.275 21.07c-2.275 4.529-2.578 10.316-3.403 15.274-2.153 12.948-3.726 25.803-4.539 38.908-0.855 6.203-0.43 12.823-0.445 19.085l-0.047 33.434c-0.414 3.152-0.187 6.61-0.224 9.803-15.932 8.958-33.504 16.952-51.071 22.02-11.051 3.188-22.253 5.27-33.566 7.241-0.823-3.68-0.339-8.316-0.161-12.112l1.17-20.166c1.283-18.187 1.654-36.583 5.195-54.521l16.314 10.824c1.994-1.443 4.09-2.871 5.792-4.659 5.165-5.424 9.558-11.94 13.518-18.273 10.123-16.188 18.915-35.571 21.026-54.742 0.471-4.28 0.185-8.872 0.166-13.186z" fill="#F9B25C"/> <path transform="scale(4)" d="m554.38 711.29c8.224-1.499 17.731-3.131 25.344-6.696 5.351 4.197 10.011 8.523 13.397 14.507 2.235 3.951 3.692 8.281 5.504 12.43 5.851 2.556 10.447 5.679 15.444 9.621 0.019 4.314 0.305 8.906-0.166 13.186-2.111 19.171-10.903 38.554-21.026 54.742-3.96 6.333-8.353 12.849-13.518 18.273-1.702 1.788-3.798 3.216-5.792 4.659l-16.314-10.824-11.155-10.456 0.911-1.136c-0.963-3.165-4.079-8.541-6.757-10.449-4.205-2.996-14.828 4.511-20.102 5.22l-0.541 0.065c-1.277 1.658-3.347 3.663-5.388 4.285-1.918 0.584-5.462 0.611-7.183-0.471-2.47-1.554-3.195-3.132-3.786-5.894l0.707-7.986c0.11-3.35-3.065-6.107-5.276-8.469-10.224-11.011-19.677-23.594-25.997-37.284l-0.109-0.078c-2.005-4.132-2.909-7.88-3.576-12.407l-3e-3 -13.527 4e-3 -11.358c28.721 5.128 56.622 5.053 85.378 0.047z" fill="#E27031"/> <path transform="scale(4)" d="m554.38 711.29c8.224-1.499 17.731-3.131 25.344-6.696 5.351 4.197 10.011 8.523 13.397 14.507 2.235 3.951 3.692 8.281 5.504 12.43 5.851 2.556 10.447 5.679 15.444 9.621 0.019 4.314 0.305 8.906-0.166 13.186-2.111 19.171-10.903 38.554-21.026 54.742-3.96 6.333-8.353 12.849-13.518 18.273-1.702 1.788-3.798 3.216-5.792 4.659l-16.314-10.824-11.155-10.456 0.911-1.136c-0.963-3.165-4.079-8.541-6.757-10.449-4.205-2.996-14.828 4.511-20.102 5.22l-0.541 0.065c0.643-2.811-0.337-6.515-0.773-9.37 1.609-3.743 3.343-6.061 6.092-9.035 3.25-0.127 6.294 0.092 9.387 1.165l0.687 0.246c12.728 4.464 23.209 16.426 32.687 25.585 7.417-7.223 13.868-14.848 18.563-24.143 7.19-14.235 12.546-34.245 7.245-49.806-1.769-5.192-4.963-10.042-10.079-12.365-8.184-3.717-21.343 5.555-28.932 8.583l-0.52 0.203 0.194-12.111c0.984-3.005 0.019-8.735 0.22-12.094z" fill="#954235"/> <path transform="scale(4)" d="m598.62 731.54c5.851 2.556 10.447 5.679 15.444 9.621 0.019 4.314 0.305 8.906-0.166 13.186-2.111 19.171-10.903 38.554-21.026 54.742-3.96 6.333-8.353 12.849-13.518 18.273-1.702 1.788-3.798 3.216-5.792 4.659l-16.314-10.824-11.155-10.456 0.911-1.136 4.326-3.912 16.915 15.107c9.353-5.715 17.572-17.492 22.75-27.008 10.628-19.534 13.909-40.768 7.625-62.252z" fill="#E27031"/> <path transform="scale(4)" d="m469 711.25c28.721 5.128 56.622 5.053 85.378 0.047-0.201 3.359 0.764 9.089-0.22 12.094l-0.194 12.111c-0.629 4.389-1.196 9.67-3.563 13.502-6.072 13.609-15.898 25.719-25.475 37.03-2.749 2.974-4.483 5.292-6.092 9.035 0.436 2.855 1.416 6.559 0.773 9.37-1.277 1.658-3.347 3.663-5.388 4.285-1.918 0.584-5.462 0.611-7.183-0.471-2.47-1.554-3.195-3.132-3.786-5.894l0.707-7.986c0.11-3.35-3.065-6.107-5.276-8.469-10.224-11.011-19.677-23.594-25.997-37.284l-0.109-0.078c-2.005-4.132-2.909-7.88-3.576-12.407l-3e-3 -13.527 4e-3 -11.358z" fill="#F9B25C"/> <path transform="scale(4)" d="m469 711.25c28.721 5.128 56.622 5.053 85.378 0.047-0.201 3.359 0.764 9.089-0.22 12.094-0.227-0.397-0.388-0.883-0.908-1.015-0.835-0.211-5.442 1.546-6.5 1.832-5.319 1.439-10.799 2.47-16.25 3.256-21.436 3.09-40.879 1.855-61.504-4.856l4e-3 -11.358z" fill="#E27031"/> <path transform="scale(4)" d="m472.68 748.62 0.589 0.093c4.413 0.726 8.578 2.395 12.961 3.306 14.635 3.042 27.99 3.159 42.765 1.312 4.609-0.577 9.047-1.669 13.552-2.755 2.472-0.596 5.303-1.592 7.85-1.572-6.072 13.609-15.898 25.719-25.475 37.03-2.749 2.974-4.483 5.292-6.092 9.035 0.436 2.855 1.416 6.559 0.773 9.37-1.277 1.658-3.347 3.663-5.388 4.285-1.918 0.584-5.462 0.611-7.183-0.471-2.47-1.554-3.195-3.132-3.786-5.894l0.707-7.986c0.11-3.35-3.065-6.107-5.276-8.469-10.224-11.011-19.677-23.594-25.997-37.284z" fill="#F7CFAA"/> <path transform="scale(4)" d="m423.84 732.51c4.457-12.184 10.621-19.424 21.155-26.975l24.004 5.709-4e-3 11.358 3e-3 13.527c0.667 4.527 1.571 8.275 3.576 12.407l0.109 0.078c6.32 13.69 15.773 26.273 25.997 37.284 2.211 2.362 5.386 5.119 5.276 8.469l-0.707 7.986-0.678-0.041c-7.222-0.551-15.615-6.746-22.376-1.559-2.704 2.073-4.54 5.344-6.323 8.21l0.123 0.429c-2.438 2.608-5.236 5.752-8.138 7.783 2.313 6.489 2.971 13.774 3.913 20.572 2.223 16.045 3.444 32.103 3.953 48.29 0.232 7.356 0.643 14.848 0.262 22.202-26.787-4.578-53.55-11.023-78.053-23.107-3.058-1.508-5.897-3.393-8.88-5.039l0.758-41.325c-0.185-11.705-1.382-23.67-2.989-35.259l-4.066-22.293c-1.157-5.796-2.224-11.425-5.001-16.713 13.562-10.473 27.402-20.441 42.613-28.437 1.639-1.402 3.627-2.445 5.473-3.556z" fill="#F9B25C"/> <path transform="scale(4)" d="m418.37 736.07c1.639-1.402 3.627-2.445 5.473-3.556-1.382 4.653-2.37 9.079-3.036 13.89-3.051 22.024 8.091 47.566 21.255 64.731 2.918 3.805 5.794 7.2 9.594 10.147l18.293-16.008 3.926 3.693 0.123 0.429c-2.438 2.608-5.236 5.752-8.138 7.783-6.859 4.994-13.338 9.571-20.84 13.596-9.686-9.877-17.97-23.536-23.316-36.246-8.089-19.23-11.446-38.678-3.334-58.459z" fill="#E27031"/> <path transform="scale(4)" d="m423.84 732.51c4.457-12.184 10.621-19.424 21.155-26.975l24.004 5.709-4e-3 11.358 3e-3 13.527c0.667 4.527 1.571 8.275 3.576 12.407l0.109 0.078c6.32 13.69 15.773 26.273 25.997 37.284 2.211 2.362 5.386 5.119 5.276 8.469l-0.707 7.986-0.678-0.041c-7.222-0.551-15.615-6.746-22.376-1.559-2.704 2.073-4.54 5.344-6.323 8.21l-3.926-3.693-18.293 16.008c-3.8-2.947-6.676-6.342-9.594-10.147-13.164-17.165-24.306-42.707-21.255-64.731 0.666-4.811 1.654-9.237 3.036-13.89z" fill="#E27031"/> <path transform="scale(4)" d="m423.84 732.51c4.457-12.184 10.621-19.424 21.155-26.975l24.004 5.709-4e-3 11.358 3e-3 13.527-0.823-0.338c-8.237-3.454-20.36-12.782-29.838-8.767-4.33 1.835-7.517 5.878-9.133 10.198-6.082 16.256-0.668 36.033 6.513 51.141 4.335 9.119 9.618 16.954 16.893 23.963 14.926-9.348 26.864-26.51 46.07-26.428 2.211 2.362 5.386 5.119 5.276 8.469l-0.707 7.986-0.678-0.041c-7.222-0.551-15.615-6.746-22.376-1.559-2.704 2.073-4.54 5.344-6.323 8.21l-3.926-3.693-18.293 16.008c-3.8-2.947-6.676-6.342-9.594-10.147-13.164-17.165-24.306-42.707-21.255-64.731 0.666-4.811 1.654-9.237 3.036-13.89z" fill="#954235"/> <path transform="scale(4)" d="m269.41 105.3c-0.131-2.87-0.337-5.7308-0.105-8.5985 16.855 12.19 32.963 18.344 54.028 14.996 32.465-5.161 57.101-31.611 84.495-47.596 47.918-27.96 105.22-36.626 158.73-21.316 18.487 5.2897 35.529 12.875 51.188 24.15 15.677 11.287 29.166 25.165 39.113 41.786l6.091 11.051c0.51 0.981 1.456 3.561 2.179 4.258 0.2 0.193 1.628 0.408 2.009 0.505l8.776 2.411c9.329 2.859 18.288 6.389 27.107 10.578 62.271 29.579 107.33 87.371 118.35 155.73l1.897 13.747c0.599 6.506 0.512 13.188 0.46 19.717-0.331 41.52-12.571 83.1-33.216 119.07-7.717-1.498-14.892-2.837-22.782-2.955l-5.887 27.818c-0.939 4.333-2.528 9.404-2.775 13.765-1.909 9.051-5.081 18.778-9.614 26.858-5.146-9.436-6.611-20.906-7.604-31.455-1.445-15.345-1.36-30.817-1.234-46.217 0.584-3.904 0.254-8.294 0.344-12.258l1.008-16.827c-7.719-5.038-14.467-10.954-21.02-17.418-10.083-9.947-18.777-20.937-27.07-32.387-27.169-37.512-49.656-84.248-49.919-131.36-1.085 1.172-1.962 2.458-2.899 3.746-6.406 8.809-13.944 16.709-21.752 24.276-30.778 29.83-70.382 50.98-111.59 62.355-17.481 4.825-35.231 7.426-53.109 10.243l-38.324 3.033c5.77-4.431 10.674-9.956 15.659-15.229 13.203-13.964 25.561-28.521 35.992-44.704-4.539-0.77-12.837 4.338-17.016 6.281-20.051 9.321-39.735 19.641-58.605 31.174l-18.31 12.372c-32.384 23.114-61.135 54.423-78.279 90.572l-7.3 17.42c-1.627 4.281-2.455 9.131-5.554 12.658l-0.151 0.609c-2.873 11.961-3.393 25.574-3.193 37.863 0.07 4.372 0.965 9.367 0.51 13.653-5.929-10.411-10.155-21.279-13.219-32.855l-3.512-15.812c-10.312-2.074-19.315-2.313-29.286 1.424-1.647 0.617-3.698 1.221-5.193 2.124-3.926-7.051-7.829-13.812-11.074-21.23-9.494-21.7-13.516-43.556-14.223-67.079l0.177-12.171c2.873-41.458 18.285-82.512 50.21-110.2-20.96-8.78-35.191-23.901-46.341-43.323-1.153-1.794-1.985-3.804-2.886-5.734 5.879 0.937 11.862 1.937 17.815 2.166 29.045 1.116 59.096-7.933 85.321-19.806-6.593-3.415-12.768-6.991-18.276-12.028-14.074-12.87-19.386-31.34-20.14-49.855z" fill="#954235"/> <path transform="scale(4)" d="m207.57 190.56c2.035-0.123 3.023 0.249 4.769 1.313 3.488 2.129 6.6 5.276 9.9 7.737 7.664 5.717 15.925 11.223 24.468 15.538 13.93 7.036 27.754 11.765 43.273 13.715l16.192 1.323c-12.495 5.854-28.271 7.991-41.924 6.049-3.528-0.502-6.86-1.735-10.337-2.352-20.96-8.78-35.191-23.901-46.341-43.323z" fill="#72231D"/> <path transform="scale(4)" d="m269.41 105.3c2.359 1.064 3.175 2.082 4.58 4.197 11.276 16.975 28.22 26.398 47.928 30.231 11.174 2.174 22.963 2.848 34.331 2.509-8.873 6.355-18.558 11.187-28.335 15.966-4.033 1.971-7.939 4.205-12.054 6.001-2.621 1.145-5.449 1.813-8.034 2.979-6.593-3.415-12.768-6.991-18.276-12.028-14.074-12.87-19.386-31.34-20.14-49.855z" fill="#72231D"/> <path transform="scale(4)" d="m682.7 165.86c6.412 1.34 12.704 2.631 18.896 4.836 20.898 7.44 37.797 21.329 52.046 38.056 26.116 30.655 37.871 70.432 38.316 110.24 0.094 8.433-0.718 16.855-1.389 25.252l-0.247 1.583c-1.58-5.096-1.884-10.937-2.681-16.229-1.375-9.132-3.004-18.184-5.342-27.124-3.484-13.319-8.651-26.344-14.375-38.845-12.819-27.992-30.521-56.429-53.998-76.78-9.834-8.523-20.098-14.463-31.226-20.99z" fill="#E27031"/> <path transform="scale(4)" d="m457.99 173.21c3.857-0.858 8.969-0.4 12.956-0.367l23.051 0.488c-11.45 2.431-22.958 4.547-34.228 7.745-27.576 7.827-53.855 18.587-79.19 31.972-36.027 19.035-68.454 42.559-94.72 73.988-3.521 3.947-6.789 8.01-9.853 12.325-1.862 2.622-3.269 5.487-5.468 7.852 10.658-24.771 24.746-48.084 41.899-68.912 35.34-42.911 92.139-59.988 145.55-65.091z" fill="#E27031"/> <path transform="scale(4)" d="m501.62 74.291c12.53-1.366 26.426 0.6088 38.717 2.9549 41.136 7.8524 72.077 32.357 95.282 66.434-7.421-5.504-14.622-11.021-22.482-15.93-24.057-15.025-49.407-23.9-76.741-30.783-39.286-6.2283-79.732-4.8428-118.12 6.2207-13.241 3.816-25.802 8.884-38.754 13.476 4.773-4.017 11.012-7.344 16.403-10.524 32.148-18.964 68.442-29.836 105.7-31.849z" fill="#E27031"/> <path transform="scale(4)" d="m203.53 356.25c0.558 0.504 1.59 1.177 2.016 1.751 0.514 0.693 0.87 2.841 1.162 3.744l4.595 13.952c2.665 7.105 6.119 13.91 10.377 20.189 1.407-10.126 2.497-20.176 4.66-30.197 5.599-25.939 17.477-51.622 33.328-72.898-2.086 8.977-3.946 17.809-4.752 27.015-1.266 14.461-0.274 29.643 1.638 44.014 7.307-8.88 14.127-17.894 22.167-26.167 12.694-13.059 26.681-24.761 41.139-35.805 30.1-22.991 62.894-42.672 97.661-57.765l94.262-39.282c15.737-7.408 30.122-16.724 45.337-25.018l-64.67 95.218c14.057-0.475 28.003-1.067 41.804-4.054 20.144-4.36 39.838-13.104 57.711-23.176 14.304-8.06 28.258-17.373 40.358-28.519 5.557-5.118 10.182-11.175 15.342-16.675l-1.89 8.674c-2.26 11.135 0.848 21.356 3.98 31.978 8.273 28.057 24.47 54.544 40.192 78.991 6.063 9.427 12.055 19.358 19.97 27.368 4.248 4.299 9.062 6.888 14.306 9.749 4.156-12.706 5.461-25.805 6.43-39.083l2.516-41.665 13.968 28.355c12.392 26.366 23.932 56.646 26.139 85.901 0.68 9.02-0.017 18.198-0.254 27.23 3.61-3.174 7.339-6.19 10.447-9.886 4.505-5.356 8.17-11.51 11.697-17.534 10.714-18.298 18.353-38.367 22.486-59.177 1.422-7.156 2.131-14.518 3.067-21.749 0.322-2.491 0.632-3.286 2.549-4.725 0.599 6.506 0.512 13.188 0.46 19.717-0.331 41.52-12.571 83.1-33.216 119.07-7.717-1.498-14.892-2.837-22.782-2.955l-5.887 27.818c-0.939 4.333-2.528 9.404-2.775 13.765-1.909 9.051-5.081 18.778-9.614 26.858-5.146-9.436-6.611-20.906-7.604-31.455-1.445-15.345-1.36-30.817-1.234-46.217 0.584-3.904 0.254-8.294 0.344-12.258l1.008-16.827c-7.719-5.038-14.467-10.954-21.02-17.418-10.083-9.947-18.777-20.937-27.07-32.387-27.169-37.512-49.656-84.248-49.919-131.36-1.085 1.172-1.962 2.458-2.899 3.746-6.406 8.809-13.944 16.709-21.752 24.276-30.778 29.83-70.382 50.98-111.59 62.355-17.481 4.825-35.231 7.426-53.109 10.243l-38.324 3.033c5.77-4.431 10.674-9.956 15.659-15.229 13.203-13.964 25.561-28.521 35.992-44.704-4.539-0.77-12.837 4.338-17.016 6.281-20.051 9.321-39.735 19.641-58.605 31.174l-18.31 12.372c-32.384 23.114-61.135 54.423-78.279 90.572l-7.3 17.42c-1.627 4.281-2.455 9.131-5.554 12.658l-0.151 0.609c-2.873 11.961-3.393 25.574-3.193 37.863 0.07 4.372 0.965 9.367 0.51 13.653-5.929-10.411-10.155-21.279-13.219-32.855l-3.512-15.812c-10.312-2.074-19.315-2.313-29.286 1.424-1.647 0.617-3.698 1.221-5.193 2.124-3.926-7.051-7.829-13.812-11.074-21.23-9.494-21.7-13.516-43.556-14.223-67.079z" fill="#72231D"/> <path transform="scale(4)" d="m282.87 437.55c0.265-5.407 2.019-11.191 3.392-16.42 3.118-11.872 6.804-23.486 11.342-34.896 23.269-58.499 76.499-97.012 131.69-123.01l52.791-22.337c-4.283 9.086-8.586 17.803-14.155 26.189-4.539-0.77-12.837 4.338-17.016 6.281-20.051 9.321-39.735 19.641-58.605 31.174l-18.31 12.372c-32.384 23.114-61.135 54.423-78.279 90.572l-7.3 17.42c-1.627 4.281-2.455 9.131-5.554 12.658z" fill="#F9B25C"/> <path transform="scale(4)" d="m454.6 323.98c17.878-2.817 35.628-5.418 53.109-10.243 41.209-11.375 80.813-32.525 111.59-62.355 7.808-7.567 15.346-15.467 21.752-24.276 0.937-1.288 1.814-2.574 2.899-3.746 0.263 47.114 22.75 93.85 49.919 131.36 8.293 11.45 16.987 22.44 27.07 32.387 6.553 6.464 13.301 12.38 21.02 17.418l-1.008 16.827c-0.09 3.964 0.24 8.354-0.344 12.258-0.126 15.4-0.211 30.872 1.234 46.217 0.993 10.549 2.458 22.019 7.604 31.455 4.533-8.08 7.705-17.807 9.614-26.858l2.298 0.915-17.856 72.631c-3.338 9.193-7.381 19.497-12.796 27.694l-0.462 0.581c-2.365 3.048-4.13 6.964-6.108 10.295-3.051 5.138-6.424 10.068-10.009 14.846-24.264 32.339-57.576 59.644-93.978 77.243-7.682 3.714-15.565 7.134-23.609 9.99-5.459 1.938-11.686 3.34-16.822 5.982-7.613 3.565-17.12 5.197-25.344 6.696-28.756 5.006-56.657 5.081-85.378-0.047l-24.004-5.709c-3.501-1.964-8.675-2.887-12.527-4.218-8.441-2.916-16.948-6.144-25.033-9.928-47.402-22.183-90.518-58.792-116.47-104.54-11.412 2.188-23.683 2.326-35.042-0.214-20.033-4.48-38.763-18.328-49.525-35.68-11.362-18.317-16.148-40.187-11.15-61.3 4.67-19.731 16.539-34.538 33.575-45.101 1.495-0.903 3.546-1.507 5.193-2.124 9.971-3.737 18.974-3.498 29.286-1.424l3.512 15.812c3.064 11.576 7.29 22.444 13.219 32.855 0.455-4.286-0.44-9.281-0.51-13.653-0.2-12.289 0.32-25.902 3.193-37.863l0.151-0.609c3.099-3.527 3.927-8.377 5.554-12.658l7.3-17.42c17.144-36.149 45.895-67.458 78.279-90.572l18.31-12.372c18.87-11.533 38.554-21.853 58.605-31.174 4.179-1.943 12.477-7.051 17.016-6.281-10.431 16.183-22.789 30.74-35.992 44.704-4.985 5.273-9.889 10.798-15.659 15.229l38.324-3.033z" fill="#F7CFAA"/> <path transform="scale(4)" d="m509.47 526.64c1.716-0.172 3.339-0.239 5.047 0.043 7.812 1.286 15.952 5.166 20.554 11.841 0.984 1.428 1.688 3.276 1.289 5.027-0.321 1.411-1.202 2.83-2.448 3.598-5.673 3.497-8.009-3.158-11.619-5.933-2.382-1.832-6.277-2.617-9.2-3.253-2.86-0.04-6.899 0.079-9.512 1.336l-0.584 0.297c-2.938 1.413-4.953 3.423-7.294 5.617-1.139 1.067-2.693 2.846-4.206 3.26-0.7 0.191-2.219-0.069-3-0.094-1.373-0.983-2.504-1.946-2.826-3.695-0.393-2.135 0.72-3.866 1.903-5.579 5.442-7.879 12.875-10.778 21.896-12.465z" fill="#E27031"/> <path transform="scale(4)" d="m449.93 567.25c1.313-0.497 1.985-0.324 3.318-0.07 1.752 1.565 2.027 3.339 2.674 5.523 2.562 8.653 10.737 14.726 18.348 18.845 19.041 10.305 43.183 11.365 63.702 5.149 9.416-2.852 19.109-7.734 25.133-15.796 1.352-1.809 2.362-4.021 3.445-6.001 1.001-1.828 1.622-3.268 3.698-3.878 1.689 0.521 2.181 0.841 3.276 2.228 0.399 1.822 9e-3 2.479-0.56 4.222-9.515 14.764-21.364 22.237-38.294 26.551-21.801 5.554-48.889 2.231-68.139-9.505-8.724-5.319-16.484-13.927-18.967-24.018 0.649-1.594 0.995-2.211 2.366-3.25z" fill="#954235"/> <path transform="scale(4)" d="m335.38 464.05c-1.621-2.239-1.272-6.352-1.126-9.052 1.084-20.171 9.601-39.393 24.718-52.904 11.495-10.274 25.413-15.005 40.782-14.104 15.455 0.905 30.124 9.366 40.237 20.876 6.248 7.111 10.54 14.713 13.565 23.684 1.229 3.645 2.408 7.346 2.129 11.233-8.492-18.686-20.396-33.739-40.085-41.246-12.678-4.833-27.548-4.634-39.929 0.98-17.513 7.942-29.136 21.838-35.723 39.708-2.352 6.379-4.385 14.002-4.568 20.825z" fill="#72231D"/> <path transform="scale(4)" d="m566.37 450.1c-1.357-12.603 6.974-27.927 14.535-37.35 9.955-12.406 25.022-22.53 41.091-24.278 16.127-1.754 31.812 3.646 44.341 13.769 15.199 12.281 24.629 29.013 26.554 48.475 0.392 3.959 1.734 11.082-0.269 14.391-0.959-2.416-1.114-5.306-1.632-7.857-1.079-5.316-2.617-10.649-4.781-15.627-7.479-17.203-20.769-31.592-38.441-38.413-13.152-5.076-28.174-5.304-41.139 0.597-13.354 6.079-24.712 15.948-32.285 28.576-3.364 5.61-5.718 11.606-7.974 17.717z" fill="#72231D"/> <path transform="scale(4)" d="m249.91 473.21c4.941 0.126 8.491 0.494 13.011 2.707 0.735 2.765 0.397 6.268 0.465 9.147l0.901 12.176c2.322 20.434 6.09 39.494 12.454 59.084-6.618-0.397-12.925-0.938-18.991-3.927-10.497-5.173-17.408-14.029-21.017-25.02l-0.331-2.628c-0.663-4.7-0.738-9.346 0.923-13.862 3.567-9.697 11.844-13.362 20.524-17.383-1.632-3.356-4.163-6.924-7.493-8.771-2.769-1.536-6.744-1.081-9.7-0.287-10.349 2.781-14.993 9.746-20.054 18.503 0.969-7.222 2.783-14.544 7.804-20.093 5.473-6.047 13.48-9.232 21.504-9.646z" fill="#E27031"/> <path transform="scale(4)" d="m393.76 327.68c3.889-0.483 8.764-0.697 12.554 0.308 7.307 1.937 12.496 7.02 15.991 13.521 1.925 3.581 4.468 8.938 3.05 13.055-0.893 2.594-3.596 3.439-6.103 3.621l-17.887 0.448c-8.337 0.43-17.313 1.196-25.411 3.182-11.047 2.709-20.921 7.298-31.1 12.214-6.901 3.42-13.628 7.375-19.812 11.966 2.129-7.878 8.245-16.042 13.168-22.476 13.807-18.046 32.438-32.764 55.55-35.839z" fill="#72231D"/> <path transform="scale(4)" d="m625.25 326.59c3.568-0.331 7.547 0.495 11.002 1.358 8.091 2.023 15.158 6.073 21.982 10.741 17.992 12.309 32.419 29.262 43.661 47.845l-16.706-9.558c-14.881-7.326-30.401-13.16-46.797-16.11-4.938-0.888-10.057-1.401-15.062-1.671l-14.795-0.424c-1.925-0.116-4.3-0.056-6.043-0.974-1.736-0.913-2.808-2.103-3.24-4.031-1.055-4.705 1.32-9.945 3.897-13.802 5.327-7.974 13.013-11.523 22.101-13.374z" fill="#72231D"/> <path transform="scale(4)" d="m653 533.62c7.812-0.362 15.785-1.439 23.501 0.245l0.913 0.192c10.006 2.176 19.191 9.026 24.563 17.672 6.173 9.936 7.889 20.937 5.095 32.267-2.779 11.267-9.57 21.104-19.606 27.066-4.731 2.811-10.042 4.659-15.465 5.515l-0.765 0.126c-4.67 0.701-9.862 0.411-14.485-0.5-10.745-2.116-20.648-8.014-26.847-17.191-5.598-8.289-8.066-19.143-6.538-29.016l0.121-0.855c1.737-11.563 9.512-21.413 17.431-29.472l12.082-6.049z" fill="#F7A68E"/> <path transform="scale(4)" d="m353.53 534.18 0.58-0.132c9.711-1.16 20.288 3.203 28.027 8.742 8.962 6.414 15.627 17.038 17.386 27.899 1.725 10.652-1.701 22.937-8.099 31.561-7.541 10.164-19.602 15.07-31.806 16.702-9.796 0.231-20.772-2.652-28.814-8.401-8.881-6.348-15.703-17.406-17.453-28.19-1.643-10.121 0.769-21.948 6.882-30.282 8.249-11.247 19.995-15.883 33.297-17.899z" fill="#F7A68E"/> <path transform="scale(4)" d="m454.6 323.98c17.878-2.817 35.628-5.418 53.109-10.243 41.209-11.375 80.813-32.525 111.59-62.355 7.808-7.567 15.346-15.467 21.752-24.276 0.937-1.288 1.814-2.574 2.899-3.746 0.263 47.114 22.75 93.85 49.919 131.36 8.293 11.45 16.987 22.44 27.07 32.387 6.553 6.464 13.301 12.38 21.02 17.418l-1.008 16.827c-0.09 3.964 0.24 8.354-0.344 12.258-0.251-2.287-0.049-4.746-0.016-7.052 5e-3 -0.383 0.151-2.055 0.034-2.309-0.288-0.623-2.017-1.996-2.573-2.545l-11.446-10.91c-5.258-5.134-10.398-10.307-15.212-15.864-12.106-13.974-21.952-29.668-31.883-45.179l-17.585-26.763c-12.215-19.957-20.937-40.893-27.222-63.394-1.494 0.506-3.768 3.697-4.959 4.984-5.499 5.944-10.815 12.306-16.689 17.873-40.19 38.083-91.63 61.116-146.94 64.769-12.669 0.836-25.541-0.016-38.225-0.311l17.915-15.176c2.566-2.152 6.288-4.399 8.286-7.049l0.511-0.706z" fill="#F9B25C"/> <path transform="scale(4)" d="m335.38 464.05c0.183-6.823 2.216-14.446 4.568-20.825 6.587-17.87 18.21-31.766 35.723-39.708 12.381-5.614 27.251-5.813 39.929-0.98 19.689 7.507 31.593 22.56 40.085 41.246l3.009 15.864c0.698 5.223 0.566 11.119-0.017 16.349-2.17 19.46-10.464 41.627-25.936 54.383-10.414 8.586-23.137 13.682-36.737 12.201l-0.789-0.08c-16.898-1.859-32.886-13.225-43.206-26.272-8.544-10.802-14.995-25.219-16.338-39.021-0.421-4.332-0.225-8.804-0.291-13.157z" fill="#FEFEFE"/> <path transform="scale(4)" d="m400.11 417.18c8.05-0.773 16.1 2.012 22.608 6.633 11.649 8.272 18.443 22.2 20.634 36.068 2.573 16.282-1.261 35.553-11.117 48.94-8.208 11.15-17.018 16.483-30.545 18.505-7.105 1.022-15.87-2.683-21.466-6.808-11.817-8.71-19.295-24.209-21.344-38.518-2.408-16.823 0.954-34.492 11.376-48.164 7.359-9.652 17.968-15.118 29.854-16.656z" fill="#7E430D"/> <path transform="scale(4)" d="m381.35 461.88-9e-3 -0.056c-4.077-0.73-7.098-2.992-9.489-6.34-2.202-3.083-3.834-7.251-3.057-11.072 0.884-4.347 3.609-8.23 7.413-10.5 2.54-1.515 5.85-3.016 8.816-2.149l0.725 0.231c1.032 0.306 2.032 0.559 3 1.051 5.079 2.584 6.707 7.106 8.321 12.193-0.649 5.236-1.093 9.699-5.571 13.191-3.162 2.466-6.134 3.577-10.149 3.451z" fill="#FEFEFE"/> <path transform="scale(4)" d="m397.07 445.24c5.741 0.073 11.107 0.689 15.37 5.01 4.787 4.851 7.397 11.457 7.196 18.25-0.204 6.882-3.07 13.04-8.09 17.707-2.921 2.715-7.216 4.827-11.283 4.719-5.006-0.134-9.89-3.033-13.208-6.65-5.245-5.716-6.46-13.857-7.039-21.276 0.632-1.108 0.174-0.752 1.334-1.118 4.015 0.126 6.987-0.985 10.149-3.451 4.478-3.492 4.922-7.955 5.571-13.191z" fill="#3A0600"/> <path transform="scale(4)" d="m566.37 450.1c2.256-6.111 4.61-12.107 7.974-17.717 7.573-12.628 18.931-22.497 32.285-28.576 12.965-5.901 27.987-5.673 41.139-0.597 17.672 6.821 30.962 21.21 38.441 38.413 2.164 4.978 3.702 10.311 4.781 15.627 0.518 2.551 0.673 5.441 1.632 7.857 1.69 2.537-0.221 11.019-0.845 14.211-3.256 16.625-10.97 32.73-24.062 43.796-4.568 3.861-9.839 7.046-14.72 10.51l-12.082 6.049c-3.786 0.445-7.522 1.386-11.304 1.72-10.003 0.885-19.11-0.343-28.124-4.836-16.136-8.043-28.939-25.208-34.506-42.196-3.094-9.439-4.148-19.073-3.989-28.972 0.05-3.13-0.018-6.7 0.747-9.724 0.497-1.963 1.539-3.3 2.399-5.06l0.234-0.505z" fill="#FEFEFE"/> <path transform="scale(4)" d="m620.19 417.59c7.478-0.665 15.84 2.278 21.867 6.639 13.171 9.531 20.656 24.885 23.259 40.622 2.513 15.193 0.465 32.178-8.83 44.845-7.539 10.275-17.268 15.352-29.672 17.295-7.759 0.132-14.899-1.288-21.555-5.405-13.207-8.168-21.068-22.242-24.424-37.083-3.603-15.937-0.357-32.563 8.303-46.328 7.574-12.037 17.623-17.513 31.052-20.585z" fill="#7E430D"/> <path transform="scale(4)" d="m603.51 461.74c-2.83-0.212-5.634-1.408-7.763-3.292-2.836-2.509-4.737-7.06-4.801-10.804-0.059-3.417 1.309-6.606 3.733-9.004 2.915-2.881 6.735-4.259 10.818-4.133 3.029 0.094 6 1.574 8.008 3.808 3.214 3.577 3.477 7.734 3.242 12.29-1.693 3.986-3.935 8.262-8.25 9.902-1.591 0.605-3.312 0.954-4.987 1.233z" fill="#FEFEFE"/> <path transform="scale(4)" d="m616.75 450.6c1.889-0.302 3.659-0.478 5.571-0.32 2.106 0.174 3.83 0.494 5.734 1.468l0.62 0.312c4.494 2.405 7.219 7.192 8.596 11.932 1.636 5.632 1.081 13.664-1.949 18.74-2.445 4.097-6.299 7.226-10.949 8.431-4.636 1.201-9.474 0.227-13.442-2.323-4.705-3.024-8.492-8.211-9.386-13.842-0.623-3.924-0.035-9.737 1.968-13.263 1.675-0.279 3.396-0.628 4.987-1.233 4.315-1.64 6.557-5.916 8.25-9.902z" fill="#3A0600"/> </svg>