<?xml version="1.0" encoding="utf-8"?><svg version="1.1" id="Layer_1" xmlns="http://www.w3.org/2000/svg" xmlns:xlink="http://www.w3.org/1999/xlink" x="0px" y="0px" viewBox="0 0 122.71 122.88" style="enable-background:new 0 0 122.71 122.88" xml:space="preserve"><g><path d="M59.06,111.04c-11.93-0.57-22.26-4.87-31.1-12.95c0.28,1.19,0.42,2.07,0.42,2.69c0,3.97-2.04,5.95-6.12,5.95 c-4.08,0-6.12-2.07-6.12-6.2c0-4.14,1.95-6.2,5.86-6.2c0.62,0,1.47,0.14,2.58,0.42c-7.9-8.78-12.15-19.09-12.69-30.96 c-1.5,2.58-3.4,3.85-5.75,3.85c-4.11,0-6.15-2.07-6.15-6.2c0-4.14,2.04-6.2,6.15-6.2c2.41,0,4.31,1.25,5.75,3.77 c0-11.19,4.25-21.5,12.78-30.88c-1.16,0.28-2.07,0.42-2.75,0.42c-3.85,0-5.78-2.07-5.78-6.2c0-4.14,2.04-6.2,6.12-6.2 c4.08,0,6.12,1.98,6.12,5.95c0,0.62-0.14,1.47-0.42,2.61c8.98-8.02,19.35-12.29,31.1-12.86c-2.55-1.39-3.82-3.29-3.82-5.72 C55.24,2.04,57.3,0,61.41,0c4.05,0,6.06,2.04,6.06,6.12c0,2.44-1.25,4.33-3.74,5.72c11.7,0.57,22.04,4.84,31.02,12.86 c-0.28-1.13-0.42-1.98-0.42-2.61c0-3.97,2.04-5.95,6.12-5.95s6.12,2.07,6.12,6.2c0,4.14-1.95,6.2-5.86,6.2 c-0.62,0-1.5-0.14-2.66-0.42c8.64,9.38,12.95,19.69,12.95,30.88c1.42-2.52,3.31-3.77,5.67-3.77c4.05,0,6.06,2.07,6.06,6.2 c0,4.14-2.01,6.2-6.06,6.2c-2.29,0-4.19-1.27-5.67-3.85c-0.57,11.87-4.87,22.18-12.95,30.96c1.1-0.28,1.95-0.42,2.58-0.42 c3.97,0,5.95,2.07,5.95,6.2c0,4.14-2.04,6.2-6.12,6.2s-6.12-1.98-6.12-5.95c0-0.62,0.14-1.5,0.42-2.69 c-8.81,8.07-19.15,12.38-31.02,12.95c2.49,1.44,3.74,3.34,3.74,5.72c0,4.08-2.01,6.12-6.06,6.12c-4.11,0-6.17-2.04-6.17-6.12 C55.24,114.38,56.51,112.48,59.06,111.04L59.06,111.04z M46.97,54.98c-2.24-1.19-3.48-3.06-3.77-5.58 c-3.65-0.51-5.72-2.55-6.15-6.12c-2.61-0.4-4.53-1.67-5.75-3.82c-3.31,4.96-5.55,10.37-6.71,16.2c1.1-0.28,1.98-0.42,2.63-0.42 c1.16,0,2.49,0.59,3.99,1.76c1.56-1.16,3.03-1.76,4.42-1.76c1.39,0,2.83,0.59,4.33,1.76c1.53-1.16,2.86-1.76,3.99-1.76 c0.65,0,1.59,0.14,2.75,0.42L46.97,54.98L46.97,54.98z M46.63,67.13c-1.1,0.34-2.04,0.51-2.75,0.51c-1.05,0-2.38-0.62-3.91-1.84 c-1.5,1.22-2.95,1.84-4.33,1.84c-1.44,0-2.92-0.62-4.42-1.84c-1.56,1.22-2.89,1.84-3.99,1.84c-0.65,0-1.53-0.17-2.63-0.51 c1.16,5.89,3.4,11.33,6.71,16.29c1.27-2.21,3.17-3.48,5.67-3.82c0.45-3.63,2.49-5.67,6.15-6.12c0.34-2.52,1.61-4.39,3.85-5.58 L46.63,67.13L46.63,67.13z M54.9,75.89c-1.25,2.21-3.12,3.48-5.61,3.8c-0.4,3.65-2.44,5.67-6.17,6.03 c-0.25,2.61-1.53,4.5-3.74,5.72c4.99,3.31,10.42,5.58,16.29,6.74c-0.4-1.1-0.59-2.01-0.59-2.66c0-1.1,0.65-2.44,1.93-3.99 c-1.16-1.56-1.76-2.97-1.76-4.31c0-1.39,0.59-2.86,1.76-4.48c-1.16-1.47-1.76-2.78-1.76-3.88c0-0.65,0.14-1.56,0.42-2.72 L54.9,75.89L54.9,75.89z M55.75,46.74c-0.34-1.16-0.51-2.07-0.51-2.72c0-1.1,0.62-2.44,1.84-3.97c-1.22-1.5-1.84-2.92-1.84-4.31 c0-1.39,0.62-2.83,1.84-4.39c-1.22-1.5-1.84-2.83-1.84-3.99c0-0.68,0.14-1.59,0.42-2.75c-5.86,1.22-11.3,3.48-16.29,6.83 c2.21,1.22,3.48,3.12,3.82,5.72c3.74,0.37,5.78,2.41,6.17,6.12c2.49,0.26,4.33,1.5,5.52,3.71L55.75,46.74L55.75,46.74z M61.41,69.68c2.24,0,4.16-0.79,5.75-2.41c1.56-1.61,2.35-3.57,2.35-5.84c0-2.27-0.79-4.22-2.35-5.84 c-1.59-1.61-3.51-2.41-5.75-2.41c-2.27,0-4.22,0.79-5.81,2.41c-1.61,1.61-2.41,3.57-2.41,5.84c0,2.27,0.79,4.22,2.41,5.84 C57.19,68.89,59.15,69.68,61.41,69.68L61.41,69.68z M75.74,54.98l0.31,0.68c1.16-0.28,2.1-0.42,2.75-0.42 c1.1,0,2.44,0.59,3.99,1.76c1.5-1.16,2.92-1.76,4.31-1.76c1.39,0,2.86,0.59,4.39,1.76c1.5-1.16,2.8-1.76,3.91-1.76 c0.71,0,1.61,0.14,2.72,0.42c-1.16-5.84-3.43-11.25-6.77-16.2c-1.16,2.15-3.06,3.43-5.67,3.82c-0.42,3.57-2.49,5.61-6.15,6.12 C79.29,51.92,78.01,53.79,75.74,54.98L75.74,54.98z M76.06,67.13l-0.23,0.76c2.21,1.19,3.48,3.06,3.8,5.58 c3.65,0.45,5.72,2.49,6.15,6.12c2.49,0.34,4.39,1.61,5.64,3.82c3.31-4.96,5.55-10.4,6.71-16.29c-1.1,0.34-2.01,0.51-2.72,0.51 c-1.05,0-2.35-0.62-3.91-1.84c-1.53,1.22-2.95,1.84-4.22,1.84c-1.5,0-2.97-0.62-4.48-1.84c-1.56,1.22-2.89,1.84-3.99,1.84 C78.15,67.64,77.22,67.47,76.06,67.13L76.06,67.13z M67.73,75.89l-0.68,0.25c0.28,1.16,0.42,2.07,0.42,2.72 c0,1.1-0.59,2.41-1.76,3.88c1.16,1.61,1.76,3.06,1.76,4.39c0,1.39-0.59,2.83-1.76,4.39c1.16,1.56,1.76,2.89,1.76,3.99 c0,0.65-0.14,1.56-0.42,2.66c5.92-1.16,11.36-3.43,16.32-6.74c-2.21-1.22-3.46-3.12-3.74-5.72c-3.68-0.37-5.78-2.38-6.2-6.03 C70.84,79.37,68.95,78.1,67.73,75.89L67.73,75.89z M67.05,46.74l0.59,0.26c1.27-2.21,3.2-3.46,5.78-3.71 c0.37-3.71,2.44-5.75,6.12-6.12c0.34-2.61,1.61-4.5,3.82-5.72c-4.96-3.34-10.4-5.61-16.32-6.83c0.28,1.16,0.42,2.1,0.42,2.83 c0,1.1-0.59,2.41-1.76,3.91c1.16,1.56,1.76,3,1.76,4.39c0,1.39-0.59,2.8-1.76,4.31c1.16,1.47,1.76,2.8,1.76,3.97 C67.47,44.67,67.33,45.58,67.05,46.74L67.05,46.74z"/></g></svg>