<?xml version='1.0' encoding='utf-8'?>
<svg xmlns="http://www.w3.org/2000/svg" viewBox="0 0 4095 4095"> <path transform="scale(4)" d="m510.34 919.34c5.881 5.23 12.376 9.044 18.86 13.426 0.231 0.156 1.159 0.708 1.184 0.864 3.569 0.11 8.507 3.207 12.069 4.501 17.708 6.435 36.812 8.979 55.298 4.49l0.346 0.382-1.889 2.448c1.665-0.989 4.348-3.171 6.227-2.973-0.534 2.905-2.652 5.1-4.885 6.872-8.323 6.605-20.809 7.347-30.981 6.073-16.116-2.019-32.791-9.12-46.568-17.513-2.983-1.817-6.776-3.845-8.848-6.692-2.601-3.574-1.568-7.874-0.813-11.878z" fill="#480222"/> <path transform="scale(4)" d="m401.56 942.48c2.266-0.153 5.102 0.86 7.402 1.236 4.681 0.765 9.131 1.283 13.879 1.306 19.067 0.093 39.069-5.327 55.531-15.011 5.831-3.43 11.074-7.663 16.798-11.189l0.418-0.254c0.843 3.303 2.152 7.371 0.372 10.563-5.937 10.642-39.66 22.275-51.543 25.035-8.342 1.937-16.931 2.897-25.42 1.44l-0.796-0.131c-5.925-1.028-11.702-4.385-15.142-9.389-0.702-1.021-1.322-2.37-1.499-3.606z" fill="#480222"/> <path transform="scale(4)" d="m512.84 878.07c1.934 0.644 4.813 0.632 6.874 0.864 14.102 1.59 27.086 0.406 40.884-2.669l0.404 19.739c0.05 3.003 0.563 7.056-0.429 9.896-8.508 2.219-16.901 4.083-25.729 4.33-3.339 0.093-6.763-0.131-10.091-0.41-1.572-0.132-3.195-0.609-4.715-0.066l-0.538 1.928c-1.056-0.391-2.796-2.197-3.726-2.964l-1.684-1.882c1.352-9.451-0.404-19.313-1.25-28.766z" fill="#E54766"/> <path transform="scale(4)" d="m447.33 875.7c11.037 2.461 23.16 4.182 34.478 3.178 3.904-0.346 7.812-1.377 11.709-1.9l-1.327 16.537c-0.44 4.56-1.338 10.058-0.342 14.584l-0.403 0.671-4.992 2.918c-1.948-0.917-4.282-1.001-6.411-1.188-5.718-0.503-11.431-0.171-17.133-0.588-3.814-0.279-7.691-1.118-11.385-2.088-2.518-0.661-3.623-1.019-4.944-3.308 0.692-2.006-0.086-5.686-0.054-7.929l0.804-20.887z" fill="#E54766"/> <path transform="scale(4)" d="m583.47 683.2c10.013-0.593 19.176-5.03 27.828-9.716 3.4 19.892 2.379 41.839-6.044 60.428-2.54 5.606-5.836 10.576-9.282 15.647-1.378-5.639-3.662-11.019-5.919-16.349-1.274-3.006-4.367-7.833-4.138-11.062 3.713-13.197 1.313-26.066-2.445-38.948z" fill="#F6AA5C"/> <path transform="scale(4)" d="m394.2 673.13c2.393 0.663 4.456 2.192 6.599 3.414 5.28 3.013 11.401 5.416 17.512 5.809-1.533 11.115-3.602 22.215 0.576 33.048 1.402 3.636 3.633 6.758 4.766 10.537-0.477 2.196-2.045 4.352-3.034 6.378-2.471 5.066-4.737 10.292-7.59 15.161-5.045-3.791-9.551-8.19-12.893-13.58-11.263-18.165-10.831-40.676-5.936-60.767z" fill="#F6AA5C"/> <path transform="scale(4)" d="m448.04 837.31 49.085 4.573-1.842 17.851-1.762 17.247c-3.897 0.523-7.805 1.554-11.709 1.9-11.318 1.004-23.441-0.717-34.478-3.178l0.807-23.823-0.101-14.57z" fill="#F6AA5C"/> <path transform="scale(4)" d="m448.04 837.31 49.085 4.573-1.842 17.851c-1.928 0.356-4.364-0.152-6.34-0.324-14.541-1.262-26.58-7.155-40.19-11.651l-0.154 3.477-0.458 0.644-0.101-14.57z" fill="#E68A52"/> <path transform="scale(4)" d="m446.58 904.52c1.321 2.289 2.426 2.647 4.944 3.308 3.694 0.97 7.571 1.809 11.385 2.088 5.702 0.417 11.415 0.085 17.133 0.588 2.129 0.187 4.463 0.271 6.411 1.188l4.992-2.918 0.403-0.671 3.742 10.471-0.418 0.254c-5.724 3.526-10.967 7.759-16.798 11.189-16.462 9.684-36.464 15.104-55.531 15.011-4.748-0.023-9.198-0.541-13.879-1.306-2.3-0.376-5.136-1.389-7.402-1.236-0.093-1.182-0.162-2.258 0.144-3.417 2.107-7.99 13.39-15.508 20.084-19.682l24.79-14.867z" fill="#8A234E"/> <path transform="scale(4)" d="m491.45 908.77c-0.067 0.393-0.027 0.821-0.202 1.18-0.186 0.383-1.768 1.506-2.099 1.801-2.484 2.217-4.895 4.788-7.586 6.737l-2.109 1.393c-11.454 7.222-23.956 11.862-37.342 13.816-4.632 0.676-10.515-0.046-14.305-2.946-3.1-2.372-5.87-5.591-6.69-9.49l0.647-1.142 3.626 4.622c2.465 3.101 4.903 4.621 8.868 5.035 6.579 0.685 13.53-0.632 19.857-2.365 11.589-3.172 22.988-8.074 32.343-15.723l4.992-2.918z" fill="#480222"/> <path transform="scale(4)" d="m446.58 904.52c1.321 2.289 2.426 2.647 4.944 3.308 3.694 0.97 7.571 1.809 11.385 2.088 5.702 0.417 11.415 0.085 17.133 0.588 2.129 0.187 4.463 0.271 6.411 1.188-9.355 7.649-20.754 12.551-32.343 15.723-6.327 1.733-13.278 3.05-19.857 2.365-3.965-0.414-6.403-1.934-8.868-5.035l-3.626-4.622 0.031-0.736 24.79-14.867z" fill="#F8706D"/> <path transform="scale(4)" d="m560.57 905.9c6.87 4.416 14.222 7.498 20.798 12.514 5.996 4.417 11.971 8.781 17.074 14.251 1.647 1.766 3.819 4.289 4.156 6.738 0.145 1.053 0.135 2.052-0.164 3.076-1.879-0.198-4.562 1.984-6.227 2.973l1.889-2.448-0.346-0.382c-18.486 4.489-37.59 1.945-55.298-4.49-3.562-1.294-8.5-4.391-12.069-4.501-0.025-0.156-0.953-0.708-1.184-0.864-6.484-4.382-12.979-8.196-18.86-13.426l3.748-12.505 1.684 1.882c0.93 0.767 2.67 2.573 3.726 2.964l0.538-1.928c1.52-0.543 3.143-0.066 4.715 0.066 3.328 0.279 6.752 0.503 10.091 0.41 8.828-0.247 17.221-2.111 25.729-4.33z" fill="#8A234E"/> <path transform="scale(4)" d="m515.77 908.71c0.93 0.767 2.67 2.573 3.726 2.964 12.761 9.646 32.291 19.339 48.862 17.099 6.731-0.909 9.154-4.665 13.024-9.619l0.383 0.96c-0.222 1.362-0.685 2.654-1.314 3.882-2.006 3.918-4.739 6.378-8.952 7.633-12.478 3.719-29.948-3.488-40.87-9.543-4.911-2.723-13.244-7.703-14.859-13.376z" fill="#480222"/> <path transform="scale(4)" d="m560.57 905.9c6.87 4.416 14.222 7.498 20.798 12.514l0.015 0.748c-3.87 4.954-6.293 8.71-13.024 9.619-16.571 2.24-36.101-7.453-48.862-17.099l0.538-1.928c1.52-0.543 3.143-0.066 4.715 0.066 3.328 0.279 6.752 0.503 10.091 0.41 8.828-0.247 17.221-2.111 25.729-4.33z" fill="#F8706D"/> <path transform="scale(4)" d="m395.38 655.46c2.839-7.723 5.444-15.258 9.181-22.639 11.005-21.733 27.582-36.95 47.397-50.568 0.01 5.501-4e-3 10.805 0.789 16.26l0.083 0.738c-0.251 0.96-0.588 3.206-1.179 3.904l-4.746 19.762c-0.724 3.005-1.845 6.291-2.212 9.333-0.079 0.653-0.177 1.205 0.167 1.763-1.803 2.64-2.754 5.978-3.923 8.949-3.076 7.818-5.756 16.513-10.186 23.646-0.442 0.713-1.009 1.5-1.265 2.288 1.454 0.845 1.439 0.758 1.941 2.354l-3.357 12.105-9.756-0.998c-6.111-0.393-12.232-2.796-17.512-5.809-2.143-1.222-4.206-2.751-6.599-3.414-1.655-1.393-3.25-2.413-4.681-4.088-0.282-0.865-0.122-1.703 0.103-2.566 1.017-3.917 2.146-8.906 5.755-11.02z" fill="#AD3D64"/> <path transform="scale(4)" d="m408.96 665.15c5.99-2.689 11.703-5.278 16.302-10.16 2.581-2.739 4.222-6.4 5.913-9.721l9.17-19.442 10.031-20.795c0.4-0.902 0.51-1.205 1.278-1.881l-4.746 19.762c-0.724 3.005-1.845 6.291-2.212 9.333-0.079 0.653-0.177 1.205 0.167 1.763-1.803 2.64-2.754 5.978-3.923 8.949-3.076 7.818-5.756 16.513-10.186 23.646-0.442 0.713-1.009 1.5-1.265 2.288-6.026 1.872-14.798-1.586-20.529-3.742z" fill="#8A234E"/> <path transform="scale(4)" d="m389.52 669.05c-0.282-0.865-0.122-1.703 0.103-2.566 1.017-3.917 2.146-8.906 5.755-11.02 0.253 1.632 0.139 2.598 1.621 3.601l9.547 5.589 2.409 0.504c5.731 2.156 14.503 5.614 20.529 3.742 1.454 0.845 1.439 0.758 1.941 2.354l-3.357 12.105-9.756-0.998c-6.111-0.393-12.232-2.796-17.512-5.809-2.143-1.222-4.206-2.751-6.599-3.414-1.655-1.393-3.25-2.413-4.681-4.088z" fill="#E7830C"/> <path transform="scale(4)" d="m389.52 669.05c-0.282-0.865-0.122-1.703 0.103-2.566 1.017-3.917 2.146-8.906 5.755-11.02 0.253 1.632 0.139 2.598 1.621 3.601l9.547 5.589c2.759 4.801 3.956 8.263 4.578 13.727-4.249-1.211-8.808-2.507-12.604-4.816-1.596-0.971-3.165-2.047-4.58-3.269-0.317-0.274-1.587-1.615-1.941-1.729-0.488-0.157-1.945 0.311-2.479 0.483z" fill="#F6AA5C"/> <path transform="scale(4)" d="m554.06 581.12c18.089 15.333 35.673 32.541 46.696 53.853 3.53 6.826 6.095 14.078 9.315 21.039 1.654 0.588 1.699 0.456 2.499 1.992 1.773 2.954 3.009 6.594 3.266 10.028-0.747 2.457-2.468 4.025-4.537 5.458-8.652 4.686-17.815 9.123-27.828 9.716 3.758 12.882 6.158 25.751 2.445 38.948l-3.056-3.915c-2.699-7.381-5.445-14.35-6.721-22.187-4.742 0.514-8.532 1.693-12.937 3.37l-2.289-17.987-6.152-44.048-2.228-16.883c-0.561-4.281-0.51-9.622-2.816-13.367l2.634-8.077c1.398-6.02 1.6-11.795 1.709-17.94zm-4.343 26.017c2.306 3.745 2.255 9.086 2.816 13.367l2.228 16.883 6.152 44.048 2.289 17.987c4.405-1.677 8.195-2.856 12.937-3.37 1.276 7.837 4.022 14.806 6.721 22.187l3.056 3.915c3.713-13.197 1.313-26.066-2.445-38.948l-2.416-1.895c-2.599-2.732-3.62-7.629-4.974-11.133l3.263-0.534 0.673-0.733c-1.343-4.654-2.624-9.119-4.493-13.611-3.181-7.644-7.19-14.941-10.199-22.657l-7.793-20.905c-1.544-4.257-2.826-8.786-5.181-12.678l-2.634 8.077z" fill="#AD3D64"/> <path transform="scale(4)" d="m610.07 656.01c1.654 0.588 1.699 0.456 2.499 1.992 1.773 2.954 3.009 6.594 3.266 10.028-0.747 2.457-2.468 4.025-4.537 5.458-8.652 4.686-17.815 9.123-27.828 9.716l-2.416-1.895c-2.599-2.732-3.62-7.629-4.974-11.133l3.263-0.534 0.673-0.733c7.012-2.109 13.752-4.177 20.457-7.195 3.318-1.494 6.956-3.145 9.597-5.704z" fill="#F6AA5C"/> <path transform="scale(4)" d="m581.05 681.31c3.517-2.064 6.666-1.952 10.512-2.817 4.868-1.094 10.105-2.614 14.599-4.846 2.494-1.238 4.416-3.451 6.686-5.036 1.374-0.958 1.391-0.879 2.984-0.58-0.747 2.457-2.468 4.025-4.537 5.458-8.652 4.686-17.815 9.123-27.828 9.716l-2.416-1.895z" fill="#E7830C"/> <path transform="scale(4)" d="m610.07 656.01c1.654 0.588 1.699 0.456 2.499 1.992-5.245 5.521-11.118 8.419-18.287 10.817-2.687 0.899-5.608 1.904-8.461 1.966-2.18 0.047-4.413-0.482-6.478-1.143l0.673-0.733c7.012-2.109 13.752-4.177 20.457-7.195 3.318-1.494 6.956-3.145 9.597-5.704z" fill="#E7830C"/> <path transform="scale(4)" d="m549.71 607.13 2.634-8.077c2.355 3.892 3.637 8.421 5.181 12.678l7.793 20.905c3.009 7.716 7.018 15.013 10.199 22.657 1.869 4.492 3.15 8.957 4.493 13.611l-0.673 0.733-3.263 0.534c1.354 3.504 2.375 8.401 4.974 11.133l2.416 1.895c3.758 12.882 6.158 25.751 2.445 38.948l-3.056-3.915c-2.699-7.381-5.445-14.35-6.721-22.187-4.742 0.514-8.532 1.693-12.937 3.37l-2.289-17.987-6.152-44.048-2.228-16.883c-0.561-4.281-0.51-9.622-2.816-13.367zm26.422 88.915c1.276 7.837 4.022 14.806 6.721 22.187l3.056 3.915c3.713-13.197 1.313-26.066-2.445-38.948l-2.416-1.895c-2.599-2.732-3.62-7.629-4.974-11.133l-7.007-16.429 7.065 42.303z" fill="#D22544"/> <path transform="scale(4)" d="m344.16 547.03c16.038 10.579 32.917 20.896 50.868 27.838-5.771 12.31-13.721 23.589-24.668 31.839-6.466 4.872-13.646 8.483-20.922 11.958-19.191 9.166-43.848 19.381-34.187 45.744 1.41 3.848 3.275 7.273 5.637 10.621l-10.829-6.299-1.066-2.983-0.496-0.627c-1.735-2.469-2.776-5.005-4.212-7.623-0.633-1.155-1.214-2.268-1.702-3.5l-0.6-1.5-0.555-1-0.346-1.5c-0.736-1.671-1.049-2.698-1.587-4.451-0.277-0.901-0.713-2.02-1.056-2.905-0.35-0.905-0.566-0.996-0.686-2.059-0.183-1.63-1.097-2.913-1.059-4.555 0.021-0.915 0.172-0.583-0.166-1.327l-0.241-0.453-0.173-1c-0.535-2.371-0.183-3.949-0.271-6.25-0.073-1.926-0.699-3.781-0.591-5.75 0.125-2.279 0.543-4.23 0.435-6.553l-0.037-0.697 0.597-0.689c-0.018-1.108-0.063-1.8 0.306-2.854 0.323-0.92 0.28-0.467 0.222-1.421-0.052-0.848-0.132-0.473 0.138-1.25l0.201-0.536 0.019-1c0.523-0.595 0.659-0.95 0.913-1.728 0.416-1.276 1.048-2.56 1.176-3.897 0.134-1.401 1.019-1.634 1.025-3.37 0.657-0.837 0.488-0.488 0.792-1.221 0.339-0.819 0.815-1.542 1.178-2.353l0.536-1.156 0.746-1.503c0.43-0.934 1.062-1.633 1.498-2.496 0.511-1.014 0.867-1.875 1.632-2.776 0.804-0.946 1.174-2.044 1.943-3.045l2.993-3.892 0.682-0.778c1.127-1.794 2.811-4.07 4.409-5.474l0.341-0.282c2.286-2.706 4.682-5.098 7.192-7.615 1.23-1.233 2.621-3.079 4.19-3.832l0.637-0.28c0.298-0.538 0.534-0.986 1.007-1.395 4.444-3.842 9.119-9.165 14.137-12.125z" fill="#892C15"/> <path transform="scale(4)" d="m295.88 501.16c8.789 16.405 24.818 30.156 39.91 40.742 2.706 1.898 5.687 3.25 8.375 5.129-5.018 2.96-9.693 8.283-14.137 12.125-0.473 0.409-0.709 0.857-1.007 1.395l-0.637 0.28c-1.569 0.753-2.96 2.599-4.19 3.832-2.51 2.517-4.906 4.909-7.192 7.615l-0.341 0.282c-1.598 1.404-3.282 3.68-4.409 5.474l-0.682 0.778-2.993 3.892c-0.769 1.001-1.139 2.099-1.943 3.045-0.765 0.901-1.121 1.762-1.632 2.776-0.436 0.863-1.068 1.562-1.498 2.496l-0.746 1.503-0.536 1.156c-0.363 0.811-0.839 1.534-1.178 2.353-0.304 0.733-0.135 0.384-0.792 1.221-6e-3 1.736-0.891 1.969-1.025 3.37-0.128 1.337-0.76 2.621-1.176 3.897-0.254 0.778-0.39 1.133-0.913 1.728l-0.019 1-0.201 0.536c-0.27 0.777-0.19 0.402-0.138 1.25 0.058 0.954 0.101 0.501-0.222 1.421-0.369 1.054-0.324 1.746-0.306 2.854l-0.597 0.689 0.037 0.697c0.108 2.323-0.31 4.274-0.435 6.553-0.108 1.969 0.518 3.824 0.591 5.75 0.088 2.301-0.264 3.879 0.271 6.25l0.173 1 0.241 0.453c0.338 0.744 0.187 0.412 0.166 1.327-0.038 1.642 0.876 2.925 1.059 4.555 0.12 1.063 0.336 1.154 0.686 2.059 0.343 0.885 0.779 2.004 1.056 2.905 0.538 1.753 0.851 2.78 1.587 4.451l0.346 1.5 0.555 1 0.6 1.5c0.488 1.232 1.069 2.345 1.702 3.5 1.436 2.618 2.477 5.154 4.212 7.623l0.496 0.627 1.066 2.983c-11.177-6.615-21.035-16.324-28.97-26.527-17.032-21.903-27.226-49.59-23.565-77.534 3.34-25.489 18.073-48.069 38.351-63.511z" fill="#903A1A"/> <path transform="scale(4)" d="m559.61 726.83c6.711-1.496 18.355-3.671 23.241-8.594l3.056 3.915c-0.229 3.229 2.864 8.056 4.138 11.062 2.257 5.33 4.541 10.71 5.919 16.349 6.612 15.319 10.475 32.976 13.688 49.332l3.964 20.539c-12.908 6.347-26.121 10.439-40.12 13.576-4.476 1.004-8.906 2.202-13.468 2.77l0.168 14.294 0.395 26.189c-13.798 3.075-26.782 4.259-40.884 2.669-2.061-0.232-4.94-0.22-6.874-0.864l-2.452-21.494-2.211-15.197c-3.347 0.8-7.596 0.5-11.052 0.504l-49.085-4.573c-15.451-3.09-30.669-6.07-45.037-12.858-5.512-2.605-10.698-5.921-15.84-9.176l1.576-4.994c3.592 1.781 6.275 5.02 9.892 6.888 9.464 4.889 19.828 8.41 30.289 10.409l14.181 2.07c4.26 0.742 8.915 0.405 13.24 0.415 16.301 0.039 32.973-0.699 48.757-5.267 20.565-5.952 39.836-18.94 50.091-38.114 10.085-18.858 10.564-39.676 4.428-59.85z" fill="#D22544"/> <path transform="scale(4)" d="m508.17 841.38c7.028-1.613 14.902-1.847 22.076-2.572l29.782-3.025 0.168 14.294c-10.891 4.976-25.095 6.782-36.966 7.127-4.218 0.123-8.714 0.293-12.849-0.627l-2.211-15.197z" fill="#E68A52"/> <path transform="scale(4)" d="m510.38 856.57c4.135 0.92 8.631 0.75 12.849 0.627 11.871-0.345 26.075-2.151 36.966-7.127l0.395 26.189c-13.798 3.075-26.782 4.259-40.884 2.669-2.061-0.232-4.94-0.22-6.874-0.864l-2.452-21.494z" fill="#F6AA5C"/> <path transform="scale(4)" d="m732.69 363.15c10.762-4 22.253-5.562 33.09-0.622 11.31 5.156 19.511 15.331 23.683 26.849 6.832 18.863 3.004 39.638-5.394 57.337-9.396 19.802-26.736 36.421-47.493 43.786-11.765 4.174-23.568 3.999-35.755 2.414-3.36-0.437-6.49-1.336-9.78-2.072-0.142-0.032-0.305-0.172-0.426-0.092-0.453 0.298-1.193 1.559-1.532 2.061-1.112 1.222-2.198 2.608-3.422 3.709 0.509-2.689 2.974-5.615 4.388-8.02 2.484-4.224 4.422-8.599 6.542-13 1.202-2.493 3.161-5.13 3.258-7.939-1.651 1.223-2.953 4.571-3.997 6.437l-0.468-0.498 6.555-12.5c1.145-1.622 1.746-2.794 2.497-4.645 3.341-8.432 5.89-17.937 7.682-26.826 0.96-4.757 1.486-9.679 2.778-14.355l2.046-33.667c4.574-6.859 9.251-13.153 15.748-18.357z" fill="#FE8B79"/> <path transform="scale(4)" d="m716.63 413.3c4.27-8.489 10.366-17.435 19.929-20.394 3.481-1.077 8.306-0.852 11.51 0.956 4.525 2.555 7.433 7.992 8.597 12.885 1.812 7.62 1.172 16.251-0.971 23.747-1.093-1.952-0.913-4.441-1.301-6.619-0.561-3.147-1.332-6.244-2.622-9.177-1.614-3.672-5.304-9.298-9.259-10.691l-0.495-0.159-0.561-0.191c-6.1-1.946-13.966 0.445-18.71 4.531-1.695 1.46-3.616 4.058-5.619 4.951l-0.498 0.161z" fill="#D22544"/> <path transform="scale(4)" d="m716.63 413.3 0.498-0.161c2.003-0.893 3.924-3.491 5.619-4.951 4.744-4.086 12.61-6.477 18.71-4.531l0.561 0.191 0.495 0.159c3.955 1.393 7.645 7.019 9.259 10.691 1.29 2.933 2.061 6.03 2.622 9.177 0.388 2.178 0.208 4.667 1.301 6.619-5.119 11.488-11.345 21.905-23.542 26.772-6.615 2.639-18.149 4.317-24.727 0.979l-2.457-1.542-0.534-0.353c3.341-8.432 5.89-17.937 7.682-26.826 0.96-4.757 1.486-9.679 2.778-14.355l1.735-1.869z" fill="#F8706D"/> <path transform="scale(4)" d="m709.88 507.92c18.102 16.26 30.339 40.352 31.665 64.788 1.49 27.472-7.72 55.114-26.228 75.693-7.666 8.524-17.224 15.666-27.393 20.94l-11.791 5.748c0.243-1.193 2.517-3.272 3.334-4.336 3.42-4.457 6.36-9.557 6.92-15.25 0.443-4.5-0.847-9.047-2.806-13.062-8.87-18.185-28.909-18.874-44.146-28.41-11.69-7.316-21.451-17.578-30.161-28.17 3.09-1.061 6.03-3.169 8.839-4.827 4.487-2.649 9.139-5.177 13.384-8.211l28.317-18.655 18.433-15.274c3.159-2.52 6.016-5.529 8.75-8.516l13.435-13.368c2.851-3.385 6.645-5.652 9.448-9.09z" fill="#903A1A"/> <path transform="scale(4)" d="m609.28 585.86c3.09-1.061 6.03-3.169 8.839-4.827 4.487-2.649 9.139-5.177 13.384-8.211l28.317-18.655 0.738 0.288 1.663 0.543c0.946 0.3 1.063 0.73 1.782 1.335 0.744 0.627 1.7 0.968 2.473 1.615 1.74 1.455 4.344 2.829 6.262 4.054l0.626 0.25c1.267 0.699 2.082 1.785 3.139 2.652l0.543 0.229c1.924 0.984 2.675 3.591 4.721 4.325 1.254 0.451 6.427 5.569 6.981 6.794l0.215 0.767c0.512 0.456 1.608 1.188 1.943 1.733 0.046 0.074 0.306 1.13 0.347 1.186 0.495 0.681 0.778 0.236 1.169 1.238 0.413 1.058 0.998 1.039 1.625 1.816l0.489 0.879c1.072 1.675 3.196 3.638 3.47 5.626l0.347 0.374c0.682 0.786 0.196 0.226 0.824 1.381l0.4 0.618c0.355 0.563 0.448 1.107 0.758 1.632l0.55 0.75 0.121 0.585 0.373 0.665 0.396 0.75 0.453 0.75 0.4 1.331 0.32 0.73c0.395 0.945 0.267 0.514 0.31 1.689 1.158 1.105 1.996 3.892 2.023 5.545l-0.028 0.501 0.571 0.454 0.064 0.531c0.158 1.128 0.037 0.322 0.317 1.469 0.197 0.812 0.141 1.207-0.044 2l0.275 0.555c0.433 1.007 0.328 1.973 0.682 3.021 1.022 3.031-0.221 8.492 0.049 11.924-0.698 1.38-0.072 1.658-0.262 3-0.243 1.715-1.428 3.67-1.224 5.449l-0.47 0.637 0.019 0.504c-1e-3 1.396-0.577 2.158-1.034 3.41-0.354 0.969-0.088 0.445-0.26 1.199-0.181 0.799-0.696 1.394-1.157 2.051-0.028 1.113 0.106 1.029-0.582 2-1.058 1.492-1.62 3.358-2.644 4.96-1.03 1.613 0.686-1.063-0.581 1.418l-0.519 0.649c-0.768 0.985-0.402 0.377-0.765 1.399-0.64 1.803-2.245 3.108-3.075 4.853-0.521 1.097-1.489 1.734-2.422 2.471-0.304 0.827-0.234 1.004-0.951 1.534-0.774 0.573-0.616 0.736-1.081 1.466l-0.563 0.735c-0.621 0.848-0.589 1.064-0.843 1.999l-0.275 0.812-0.548 2.042-11.791 5.748c0.243-1.193 2.517-3.272 3.334-4.336 3.42-4.457 6.36-9.557 6.92-15.25 0.443-4.5-0.847-9.047-2.806-13.062-8.87-18.185-28.909-18.874-44.146-28.41-11.69-7.316-21.451-17.578-30.161-28.17z" fill="#892C15"/> <defs> <linearGradient id="b" x1="711.89" x2="768.35" y1="191.16" y2="62.055" gradientUnits="userSpaceOnUse"> <stop stop-color="#7C200E" offset="0"/> <stop stop-color="#9C3B1D" offset="1"/> </linearGradient> </defs> <path transform="scale(4)" d="m629.75 124.04c4.932-7.48 12.233-11.73 20.998-13.442l8.118-1.059c3.168-20.092 10.355-38.755 27.37-51.232 13.006-9.5372 32.55-11.492 48.089-9.0507 22.469 3.5307 43.173 16.621 56.423 35.038 18.514 25.732 22.085 60.171 17.017 90.808-3.231 19.532-9.88 36.745-21.612 52.744-0.717-22.501-3.821-46.385-21.184-62.596-12.544-11.713-30.239-18.287-47.452-17.607-6.509 0.258-13.34 1.431-19.501 3.56-1.563-11.87-5.803-20.181-14.018-28.695h-0.407l-2.689-3.142c-9.046-5.811-19.006-9.989-29.988-7.784-6.005 1.205-11.558 4.09-16.069 8.188-1.602 1.456-3.159 3.307-5.095 4.27z" fill="url(#b)"/> <path transform="scale(4)" d="m680.9 119.37c4.442-5.527 8.427-11.252 13.424-16.342 9.343-9.5188 22.238-16.844 35.632-18.23 14.783-1.5303 31.09 3.2161 42.625 12.651 12 9.8162 19.404 23.686 24.045 38.269 1.283 4.034 2.764 8.339 3.327 12.531-0.334-0.176-6.754-14.433-8.258-16.831-15.431-24.609-44.524-39.272-73.199-30.281-10.944 3.431-20.109 9.62-29.25 16.335-1.489 1.094-4.202 2.55-4.996 4.234l-0.185 0.615-0.069 0.191h-0.407l-2.689-3.142z" fill="#903A1A"/> <path transform="scale(4)" d="m425.39 721.42 1.596 1.162c11.193 4.802 24.177 7.113 36.208 8.694 25.655 3.373 50.609 3.34 76.224-0.323 6.315-0.904 14.253-1.796 20.197-4.119 6.136 20.174 5.657 40.992-4.428 59.85-10.255 19.174-29.526 32.162-50.091 38.114-15.784 4.568-32.456 5.306-48.757 5.267-4.325-0.01-8.98 0.327-13.24-0.415l-14.181-2.07c-10.461-1.999-20.825-5.52-30.289-10.409-3.617-1.868-6.3-5.107-9.892-6.888l24.295-62.797c2.853-4.869 5.119-10.095 7.59-15.161 0.989-2.026 2.557-4.182 3.034-6.378 0.904-1.246 1.274-3.055 1.734-4.527z" fill="#E54766"/> <path transform="scale(4)" d="m453.53 578.65c4.095-0.495 7.605 0.816 11.563 1.661 3.43 0.733 6.925 1.149 10.405 1.564 13.558 1.617 26.81 2.605 40.476 2.319 6.306-0.132 12.749-0.93 19.014-1.696 2.564-0.314 6.468-1.861 8.794-1.113l10.059-0.837 0.212 0.572c-0.109 6.145-0.311 11.92-1.709 17.94l-2.634 8.077c2.306 3.745 2.255 9.086 2.816 13.367l2.228 16.883 6.152 44.048 2.289 17.987c4.405-1.677 8.195-2.856 12.937-3.37 1.276 7.837 4.022 14.806 6.721 22.187-4.886 4.923-16.53 7.098-23.241 8.594-5.944 2.323-13.882 3.215-20.197 4.119-25.615 3.663-50.569 3.696-76.224 0.323-12.031-1.581-25.015-3.892-36.208-8.694l-1.596-1.162c-0.46 1.472-0.83 3.281-1.734 4.527-1.133-3.779-3.364-6.901-4.766-10.537-4.178-10.833-2.109-21.933-0.576-33.048l9.756 0.998 3.357-12.105c-0.502-1.596-0.487-1.509-1.941-2.354 0.256-0.788 0.823-1.575 1.265-2.288 4.43-7.133 7.11-15.828 10.186-23.646 1.169-2.971 2.12-6.309 3.923-8.949-0.344-0.558-0.246-1.11-0.167-1.763 0.367-3.042 1.488-6.328 2.212-9.333l4.746-19.762c0.591-0.698 0.928-2.944 1.179-3.904l-0.083-0.738c-0.793-5.455-0.779-10.759-0.789-16.26l1.539-3.077 0.036-0.53zm-8.673 55.367c-1.803 2.64-2.754 5.978-3.923 8.949-3.076 7.818-5.756 16.513-10.186 23.646-0.442 0.713-1.009 1.5-1.265 2.288 1.454 0.845 1.439 0.758 1.941 2.354l-3.357 12.105-9.756-0.998c-1.533 11.115-3.602 22.215 0.576 33.048 1.402 3.636 3.633 6.758 4.766 10.537 0.904-1.246 1.274-3.055 1.734-4.527l3.927-15.493c0.601-2.239 1.014-4.835 2.934-6.318l2.586 1.063 10.023-66.654z" fill="#E54766"/> <path transform="scale(4)" d="m462.14 616.96c2.164 1.47 4.034 3.361 6.213 4.835 4.965 3.355 10.901 5.318 16.894 4.732 7.998-0.782 12.801-6.276 17.614-12.096-1.61 4.389-4.954 7.586-8.886 9.99-4.752 2.904-11.049 5.136-16.666 3.778-4.931-1.193-12.085-5.444-14.686-10.05l-0.483-1.189z" fill="#D22544"/> <path transform="scale(4)" d="m545.9 613.6c-1.173 4.075-5.695 8.891-9.358 11.036-4.585 2.686-10.455 3.516-15.545 1.991-2.215-0.663-4.962-2.269-6.569-3.924 3.698 1.293 6.667 2.253 10.642 2.3 8.918 0.106 14.915-5.57 20.83-11.403z" fill="#D22544"/> <path transform="scale(4)" d="m453.53 578.65c4.095-0.495 7.605 0.816 11.563 1.661 3.43 0.733 6.925 1.149 10.405 1.564 13.558 1.617 26.81 2.605 40.476 2.319 6.306-0.132 12.749-0.93 19.014-1.696 2.564-0.314 6.468-1.861 8.794-1.113l10.059-0.837 0.212 0.572c-0.109 6.145-0.311 11.92-1.709 17.94l-2.634 8.077-3.809 6.472c-5.915 5.833-11.912 11.509-20.83 11.403-3.975-0.047-6.944-1.007-10.642-2.3-4.336-3.312-7.226-6.452-10.182-11.027l-0.33 0.069-1.055 2.686c-4.813 5.82-9.616 11.314-17.614 12.096-5.993 0.586-11.929-1.377-16.894-4.732-2.179-1.474-4.049-3.365-6.213-4.835-4.11-5.218-6.496-11.753-9.314-17.714l-0.083-0.738c-0.793-5.455-0.779-10.759-0.789-16.26l1.539-3.077 0.036-0.53z" fill="#E7830C"/> <path transform="scale(4)" d="m462.78 592.63c14.959 4.081 30.595 7.9 46.22 6.735 8.46-0.631 18.065-3.088 26.51-2.215-4.523 4.926-10.201 9.878-16.856 11.405l-0.583 0.128c-2.076 0.469-3.999 0.869-6.144 0.783-3.641-0.147-5.624-1.25-8.044-3.883l-0.444-0.49c-1.712 1.589-3.586 3.454-5.669 4.542-4.227 2.211-11.831 1.201-16.239-0.076-8.796-2.55-14.444-9.248-18.751-16.929z" fill="#F6AA5C"/> <path transform="scale(4)" d="m453.53 578.65c4.095-0.495 7.605 0.816 11.563 1.661 3.43 0.733 6.925 1.149 10.405 1.564 13.558 1.617 26.81 2.605 40.476 2.319 6.306-0.132 12.749-0.93 19.014-1.696 2.564-0.314 6.468-1.861 8.794-1.113-3.143 4.42-3.994 12.614-8.274 15.772-8.445-0.873-18.05 1.584-26.51 2.215-15.625 1.165-31.261-2.654-46.22-6.735-2.145-1.259-4.4-9.572-5.53-12.143-1.592-1.115-1.721-1.328-3.754-1.314l0.036-0.53z" fill="#E68A52"/> <path transform="scale(4)" d="m563.2 699.42c4.405-1.677 8.195-2.856 12.937-3.37 1.276 7.837 4.022 14.806 6.721 22.187-4.886 4.923-16.53 7.098-23.241 8.594-5.944 2.323-13.882 3.215-20.197 4.119-25.615 3.663-50.569 3.696-76.224 0.323-12.031-1.581-25.015-3.892-36.208-8.694l-1.596-1.162 3.927-15.493c0.601-2.239 1.014-4.835 2.934-6.318l2.586 1.063 3.303 1.144 29.06 3.863c24.95 2.563 50.306 2.344 75.057-1.723 6.999-1.15 14.207-2.257 20.941-4.533z" fill="#8A234E"/> <path transform="scale(4)" d="m425.39 721.42 3.927-15.493c0.601-2.239 1.014-4.835 2.934-6.318l2.586 1.063 3.303 1.144c0.897 1.724 2.792 2.102 4.611 2.701 4.62 1.523 9.466 2.103 14.195 3.161 25.051 5.604 50.632 6.524 76.055 2.737 8.891-1.325 17.475-3.479 26.184-5.644-3.036 3.196-6.571 6.716-10.184 9.23l-0.579 0.41c-26.844 18.685-83.379 15.126-114.23 9.426-2.494-0.461-4.638-1.243-7.204-1.255l-1.596-1.162z" fill="#AD3D64"/> <path transform="scale(4)" d="m268.47 358.38-6.538-16.772c-5.762-18.856-7.096-39.178-5.967-58.79 1.954-33.947 10.716-66.528 26.664-96.601 22.367-42.176 66.137-72.386 111.16-86.13 58.926-17.988 126.39-17.443 184.31 4.148 17.191 6.409 32.909 15.091 49.06 23.67l2.591-3.858c1.936-0.963 3.493-2.814 5.095-4.27 4.511-4.098 10.064-6.983 16.069-8.188 10.982-2.205 20.942 1.973 29.988 7.784l2.689 3.142h0.407c8.215 8.514 12.455 16.825 14.018 28.695-0.137 5.888-0.64 10.955-2.712 16.523 8.716 6.765 17.134 13.999 24.116 22.597 13.817 17.018 20.6 37.809 23.309 59.318l1.417 42.403-1.898-0.804c-1.866 5.686-5.11 11.239-10.184 14.583-3.776 2.489-8.618 3.814-13.105 2.875-5.054-1.057-9.84-2.784-14.242-5.557-14.768-9.305-26.495-21.921-37.685-35.148-14.409-17.033-27.445-35.269-39.183-54.248l-7.383-12.181-4.65-8.45c-1.141-2.257-1.945-4.503-3.703-6.361l-0.321-0.333-1.044-1.393c-3.34 1.104-7.115 8.488-9.505 11.334-3.812 4.538-7.911 8.719-12.256 12.742-19.052 17.643-40.821 32.643-64.261 43.833-22.003 10.504-45.756 17.527-69.87 20.998-3.822 0.55-7.634 0.982-11.498 1.051-2.623 0.047-6.045-0.368-8.561 0.2-1.169-0.108-2.114-0.14-3.125-0.816-0.707-0.473-0.564-0.374-0.664-1.262-0.224-2.013 0.61-4.515 1.159-6.459 4.052-14.338 14.931-25.909 24.272-37.074l-0.941-1.004c-5.077 0.271-12.893 7.958-17.122 10.937l-21.579 15.284c-3.155 2.378-6.727 4.799-9.505 7.605l-0.532 0.617c-15.613 1.584-28.391 7.856-38.454 20.213l-9.022 11.759c-1.379-0.213-2.157-0.457-3.318 0.462-4.693 3.713-8.249 8.794-12.004 13.365-10.22 12.44-18.405 28.017-24.751 42.793l-7.913 20.197-3.262 9.693c-0.821 2.88-1.461 6.807-3.511 9.074-1.328-1e-3 -2-1.285-2.755-2.324-1.904-2.618-3.356-5.589-5.256-8.239-7.299-10.181-16.523-16.99-28.05-21.633z" fill="#892C15"/> <path transform="scale(4)" d="m683.59 122.51h0.407c8.215 8.514 12.455 16.825 14.018 28.695-0.137 5.888-0.64 10.955-2.712 16.523l-28.625-19.413c2.141-0.843 4.435-1.391 6.475-2.457 4.718-2.467 7.721-6.69 9.297-11.676l0.2-0.653c1.164-3.564 0.933-7.305 0.94-11.019z" fill="#E7830C"/> <path transform="scale(4)" d="m631.76 182.48c9.522 2.726 18.171 8.101 26.743 13.004 25.546 14.612 44.047 37.246 56.414 63.659 2.743 5.858 5.527 11.661 7.217 17.935-2.888-3.303-5.076-7.834-7.493-11.545-2.822-4.331-6.033-8.449-9.2-12.533-10.93-14.092-22.591-26.39-35.368-38.781-6.457-6.263-12.803-12.757-19.691-18.547-5.836-4.905-12.249-9.04-18.622-13.192z" fill="#903A1A"/> <path transform="scale(4)" d="m304.53 390.57c1.063-9.616 4.267-20.072 7.188-29.305 5.214-16.478 11.703-32.393 21.849-46.519 11.025-15.351 25.655-29.459 40.558-41.042l22.616-15.943c26.907-18.749 55.394-35.581 84.534-50.62l-24.831 22.434-0.941-1.004c-5.077 0.271-12.893 7.958-17.122 10.937l-21.579 15.284c-3.155 2.378-6.727 4.799-9.505 7.605l-0.532 0.617c-15.613 1.584-28.391 7.856-38.454 20.213l-9.022 11.759c-1.379-0.213-2.157-0.457-3.318 0.462-4.693 3.713-8.249 8.794-12.004 13.365-10.22 12.44-18.405 28.017-24.751 42.793l-7.913 20.197-3.262 9.693c-0.821 2.88-1.461 6.807-3.511 9.074z" fill="#F6AA5C"/> <path transform="scale(4)" d="m629.75 124.04c1.936-0.963 3.493-2.814 5.095-4.27 4.511-4.098 10.064-6.983 16.069-8.188 10.982-2.205 20.942 1.973 29.988 7.784l2.689 3.142c-7e-3 3.714 0.224 7.455-0.94 11.019l-0.2 0.653c-1.576 4.986-4.579 9.209-9.297 11.676-2.04 1.066-4.334 1.614-6.475 2.457l-39.52-20.415 2.591-3.858z" fill="#F6AA5C"/> <path transform="scale(4)" d="m504.5 120.25c18.441-1.823 37.951 0.274 56.287 2.588 3.238 0.409 7.834 0.337 10.715 1.794-1.873 0.806-8.249-0.45-10.486-0.628-3.959-0.316-7.778-0.475-11.749-0.251-16.621 0.937-32.972 3.256-49.166 7.154-41.122 9.896-80.378 26.615-114.53 51.748-7.884 5.801-15.15 12.279-22.419 18.819-11.578 10.415-22.345 21.141-32.151 33.276-9.947 12.307-18.572 25.658-26.82 39.133l-23.615 47.736c9.29-47.704 33.238-90.009 65.029-126.33 9.416-10.758 20.246-19.999 31.755-28.445 36.343-26.668 82.128-43.65 127.15-46.592z" fill="#903A1A"/> <defs> <linearGradient id="a" x1="246.19" x2="698.86" y1="502.64" y2="333.62" gradientUnits="userSpaceOnUse"> <stop stop-color="#FCA174" offset="0"/> <stop stop-color="#FBC989" offset="1"/> </linearGradient> </defs> <path transform="scale(4)" d="m434.8 275.19c2.516-0.568 5.938-0.153 8.561-0.2 3.864-0.069 7.676-0.501 11.498-1.051 24.114-3.471 47.867-10.494 69.87-20.998 23.44-11.19 45.209-26.19 64.261-43.833 4.345-4.023 8.444-8.204 12.256-12.742 2.39-2.846 6.165-10.23 9.505-11.334l1.044 1.393 0.321 0.333c1.758 1.858 2.562 4.104 3.703 6.361l4.65 8.45 7.383 12.181c11.738 18.979 24.774 37.215 39.183 54.248 11.19 13.227 22.917 25.843 37.685 35.148 4.402 2.773 9.188 4.5 14.242 5.557 4.487 0.939 9.329-0.386 13.105-2.875 5.074-3.344 8.318-8.897 10.184-14.583l1.898 0.804c-1.195 24.528-5.439 47.354-11.456 71.101-6.497 5.204-11.174 11.498-15.748 18.357l-2.046 33.667c-1.292 4.676-1.818 9.598-2.778 14.355-1.792 8.889-4.341 18.394-7.682 26.826-0.751 1.851-1.352 3.023-2.497 4.645l-6.555 12.5 0.468 0.498c1.044-1.866 2.346-5.214 3.997-6.437-0.097 2.809-2.056 5.446-3.258 7.939-2.12 4.401-4.058 8.776-6.542 13-1.414 2.405-3.879 5.331-4.388 8.02 1.224-1.101 2.31-2.487 3.422-3.709 7.332 3.719 14.777 9.529 20.798 15.106-2.803 3.438-6.597 5.705-9.448 9.09l-13.435 13.368c-2.734 2.987-5.591 5.996-8.75 8.516l-18.433 15.274-28.317 18.655c-4.245 3.034-8.897 5.562-13.384 8.211-2.809 1.658-5.749 3.766-8.839 4.827l-12.426-17.544c-7.677 3.533-16.121 6.13-24.347 8.019-6.219 1.429-12.534 2.403-18.661 4.211l-10.059 0.837c-2.326-0.748-6.23 0.799-8.794 1.113-6.265 0.766-12.708 1.564-19.014 1.696-13.666 0.286-26.918-0.702-40.476-2.319-3.48-0.415-6.975-0.831-10.405-1.564-3.958-0.845-7.468-2.156-11.563-1.661l-19.419-4.912c-11.307-3.381-22.748-8.151-33.236-13.536l-5.846 14.672c-17.951-6.942-34.83-17.259-50.868-27.838-2.688-1.879-5.669-3.231-8.375-5.129-15.092-10.586-31.121-24.337-39.91-40.742l11.181-7.633c-1.957-0.171-4.075 0.282-6.06 0.347-5.882 0.19-11.787 0.181-17.609-0.796-14.078-2.363-28.506-9.965-38.868-19.706-16.206-15.235-27.506-37.157-27.946-59.665-0.305-15.648 4.846-30.538 15.744-41.826 6.595-6.831 14.52-11.616 24.015-13.062 3.909-0.595 8.172-0.388 12.131-0.442 11.527 4.643 20.751 11.452 28.05 21.633 1.9 2.65 3.352 5.621 5.256 8.239 0.755 1.039 1.427 2.323 2.755 2.324 2.05-2.267 2.69-6.194 3.511-9.074l3.262-9.693 7.913-20.197c6.346-14.776 14.531-30.353 24.751-42.793 3.755-4.571 7.311-9.652 12.004-13.365 1.161-0.919 1.939-0.675 3.318-0.462l9.022-11.759c10.063-12.357 22.841-18.629 38.454-20.213l0.532-0.617c2.778-2.806 6.35-5.227 9.505-7.605l21.579-15.284c4.229-2.979 12.045-10.666 17.122-10.937l0.941 1.004c-9.341 11.165-20.22 22.736-24.272 37.074-0.549 1.944-1.383 4.446-1.159 6.459 0.1 0.888-0.043 0.789 0.664 1.262 1.011 0.676 1.956 0.708 3.125 0.816z" fill="url(#a)"/> <path transform="scale(4)" d="m363.5 366.41c-5.5-3.167-7.896-8.213-10.456-13.746l11.82 11.765-1.364 1.981z"/> <path transform="scale(4)" d="m652.53 363.03c6.265-2.079 11.905-4.948 17.765-7.932-5.648 5.054-10.518 8.45-17.791 10.781-0.476-0.471-0.716-0.818-1.055-1.383l1.081-1.466z" fill="#480222"/> <path transform="scale(4)" d="m646.42 348.11c5.669-3.826 10.36-8.02 15.357-12.638-3.193 6.224-7.571 12.373-13.597 16.133-0.702-1.094-1.205-2.319-1.76-3.495z" fill="#480222"/> <path transform="scale(4)" d="m370.53 348.8-0.483-0.314c-6.856-4.628-9.417-9.505-12.478-17.033 1.109 0.368 3.725 4.198 4.781 5.381 2.753 3.087 5.719 6.514 9.337 8.566l0.602 0.332c-1.146 1.201-1.422 1.379-1.759 3.068z"/> <path transform="scale(4)" d="m487.01 427.94c2.467-5.216 6.903-7.55 12.148-9.406 7.987-2.826 16.755-2.19 24.314 1.62 3.484 1.755 6.163 4.477 8.317 7.691-2.211-0.663-3.789-1.793-5.724-2.974-10.089-6.155-21.832-6.206-32.127-0.657-1.96 1.056-4.118 3.348-6.282 3.705l-0.646 0.021z" fill="#892C15"/> <path transform="scale(4)" d="m569.12 463.75 0.928-0.187c2.248-0.08 4.864 1.614 6.336 3.187-0.394 0.505-1.36 1.447-1.559 2-0.462 1.283 0.62 1.633-0.58 2.886l-0.518-0.349c-0.241-0.157-1.209-0.806-1.482-0.752-0.455 0.088-3.166 2.785-3.703 3.235-11.706 9.815-26.018 16.206-40.973 19.056-20.105 3.832-42.698-1.386-60.09-11.693-3.466-2.054-6.403-4.769-9.734-7.012-0.555 0.583-0.755 0.897-1.025 1.684-0.348 1.016 0.051 0.525-0.975 1.189l-0.683-1.244c-0.014-1.172 0.216-3.156-0.048-4.25-0.107-0.443-1.627-2.068-1.967-2.5 1.011-1.509 1.46-0.365 2.698-1.029 1.188-0.637 1.531-1.817 3-2.332 0.439 1.453-0.446 3.386-0.89 4.819 12.763 12.545 31.599 19.525 49.334 20.532 23.264 1.321 46.697-6.93 64.124-22.416-1.161-1.743-2.035-2.655-2.193-4.824z" fill="#892C15"/> <path transform="scale(4)" d="m582.93 283.3 22.704 3.472c10.013 2.013 20.598 4.764 30.121 8.477 6.602 2.574 12.792 5.852 19.222 8.785-0.583 1.242-0.485 2.525-1.131 3.774-11.405-4.69-22.562-8.774-34.513-11.85l-21.707-4.784c-4.003-0.768-10.46-0.912-13.876-2.755-0.687-1.669-0.705-3.336-0.82-5.119z" fill="#F6AA5C"/> <path transform="scale(4)" d="m265.25 397.56c3.458-0.362 6.13-0.095 9.248 1.497 5.582 2.849 6.997 8.515 8.632 14.037-1.857-1.644-3.661-3.466-6.06-4.26-4.574-1.513-9.844-1.051-14.066 1.258-3.722 2.035-6.193 5.67-7.424 9.668l-0.221 0.745c-1.189 3.863-1.014 7.682-0.465 11.642 1.156 4.559 3.43 8.898 4.46 13.346-1.597-0.73-4.325-7.453-5.142-9.335-3.666-8.436-5.78-18.266-2.099-27.057 2.65-6.33 7.044-9.107 13.137-11.541z" fill="#903A1A"/> <path transform="scale(4)" d="m427.92 281.02c0.59 1.82 0.903 3.317 0.909 5.234-2.19 1.56-5.612 2.034-8.228 2.651l-20.758 4.57-18.171 5.572-13.561 5.097c-2.702 1.076-5.655 2.635-8.614 2.295-0.768-0.442-1.463-0.713-1.99-1.442 2.16-0.477 4.33-1.932 6.244-3.012l9.689-5.154c10.98-5.471 22.004-9.372 34.064-11.772l14.371-2.215c2.173-0.3 4.447-0.248 6.045-1.824z" fill="#F6AA5C"/> <path transform="scale(4)" d="m644.79 248.39c6.027 7.112 11.138 15.48 16.537 23.103 21.887 30.901 42.251 62.164 52.452 99.033-3.256-2.972-4.748-7.781-6.866-11.615l-20.019-37.32-40.429-68.344c-1.092-1.755-1.535-2.762-1.675-4.857z" fill="#F6AA5C"/> <path transform="scale(4)" d="m372.29 345.73c1.546-2.548 3.049-5.313 4.935-7.624 6.706-8.216 17.124-14.737 27.526-17.06 12.051-2.692 25.3-0.18 35.556 6.619 13.493 8.946 23.322 24.122 26.905 39.851 0.219 0.963 0.173 1.665 0.031 2.628-5.088-15.033-14.301-30.708-28.992-38.062-10.247-5.129-22.185-7.378-33.268-3.563-15.611 5.373-27.185 16.732-34.279 31.54-2.081 4.342-3.989 9.276-4.971 13.995-1.158-1.901-4e-3 -4.927-0.85-6.305-0.336-0.547-0.919-0.896-1.379-1.344l1.364-1.981c1.194-2.203 1.77-4.827 2.651-7.175 1.062-2.829 2.416-5.47 3.012-8.451 0.337-1.689 0.613-1.867 1.759-3.068z" fill="#67150A"/> <path transform="scale(4)" d="m548.29 372.86c-0.477-0.206-0.228-0.041-0.654-0.611 2.583-14.613 9.239-28.538 20.118-38.775 9.99-9.399 22.862-14.659 36.649-14.103 13.96 0.563 26.449 8.751 35.096 19.267 2.297 2.794 3.997 6.439 6.444 8.984l0.485 0.491c0.555 1.176 1.058 2.401 1.76 3.495l-0.498 0.781c1.164 3.365 2.323 8.093 4.846 10.644l-1.081 1.466c0.339 0.565 0.579 0.912 1.055 1.383-0.561 1.033-0.536 0.529-0.374 1.284 0.905 4.22 0.524 8.701 0.112 12.957l-0.596-0.454c-0.11-7.284-3.35-15.218-6.819-21.52-7.299-13.262-18.748-25.938-33.858-29.942-11.833-3.135-25.347-0.78-35.767 5.501-14.28 8.608-22.885 23.346-26.918 39.152z" fill="#67150A"/> <path transform="scale(4)" d="m487.01 427.94 0.646-0.021c2.164-0.357 4.322-2.649 6.282-3.705 10.295-5.549 22.038-5.498 32.127 0.657 1.935 1.181 3.513 2.311 5.724 2.974 0.931 1.13 1.79 2.323 2.373 3.677 0.611 1.42 0.602 3.504-0.048 4.915-2.025 4.395-6.992 7.735-11.336 9.521-8.365 3.44-18.479 3.905-26.86 0.221-4.155-1.827-8.972-5.133-10.5-9.62-1.084-3.182 0.096-5.806 1.592-8.619z" fill="#FE8B79"/> <path transform="scale(4)" d="m406.76 263.02c6.674 0.705 11.341 1.387 15.812 6.886 2.585 3.18 3.993 7.302 5.349 11.112-1.598 1.576-3.872 1.524-6.045 1.824l-14.371 2.215c-12.06 2.4-23.084 6.301-34.064 11.772l-9.689 5.154c-1.914 1.08-4.084 2.535-6.244 3.012-0.348-0.471-0.738-0.949-0.971-1.493-1.091-2.556 1.536-6.346 2.747-8.51l9.022-11.759c10.063-12.357 22.841-18.629 38.454-20.213z" fill="#67150A"/> <path transform="scale(4)" d="m582.93 283.3c2.728-7.803 8.001-13.506 15.415-17.143 6.909-3.389 16.256-2.305 23.268 0.174 13.189 4.662 25.489 14.006 31.504 26.869 1.514 3.236 3.066 7.304 1.86 10.834-6.43-2.933-12.62-6.211-19.222-8.785-9.523-3.713-20.108-6.464-30.121-8.477l-22.704-3.472z" fill="#67150A"/> <path transform="scale(4)" d="m307.06 493.53 0.735-0.217 9.063-3.61c9.088 12.768 20.115 24.173 31.855 34.511 4.594 4.046 9.241 8.288 14.261 11.796l37.904 24.19-5.846 14.672c-17.951-6.942-34.83-17.259-50.868-27.838-2.688-1.879-5.669-3.231-8.375-5.129-15.092-10.586-31.121-24.337-39.91-40.742l11.181-7.633z" fill="#67150A"/> <path transform="scale(4)" d="m689.08 492.81c7.332 3.719 14.777 9.529 20.798 15.106-2.803 3.438-6.597 5.705-9.448 9.09l-13.435 13.368c-2.734 2.987-5.591 5.996-8.75 8.516l-18.433 15.274-28.317 18.655c-4.245 3.034-8.897 5.562-13.384 8.211-2.809 1.658-5.749 3.766-8.839 4.827l-12.426-17.544 20.946-9.93c13.446-7.172 27.177-16.307 38.453-26.595 11.373-10.376 20.835-22.533 29.413-35.269 1.224-1.101 2.31-2.487 3.422-3.709z" fill="#67150A"/> <path transform="scale(4)" d="m434.8 275.19c2.516-0.568 5.938-0.153 8.561-0.2 3.864-0.069 7.676-0.501 11.498-1.051 24.114-3.471 47.867-10.494 69.87-20.998 23.44-11.19 45.209-26.19 64.261-43.833 4.345-4.023 8.444-8.204 12.256-12.742 2.39-2.846 6.165-10.23 9.505-11.334l1.044 1.393c0.546 1.84 0.996 3.812 1.852 5.533l-0.635 0.423c-1.95 1.459-5.943 12.097-7.806 15.062-3.929 6.25-8.631 12.184-13.642 17.598-34.565 37.345-81.841 55.343-130.99 63.873l-15.834 2.758c-3.113 0.537-6.829 1.433-9.991 1.231-0.807-0.051-1.439-0.335-2.167-0.653-1.216-1.788-1.427-3.069-0.988-5.268l3.204-11.792z" fill="#F6AA5C"/> <path transform="scale(4)" d="m611.79 186.42 0.321 0.333c1.758 1.858 2.562 4.104 3.703 6.361l4.65 8.45 7.383 12.181c11.738 18.979 24.774 37.215 39.183 54.248 11.19 13.227 22.917 25.843 37.685 35.148 4.402 2.773 9.188 4.5 14.242 5.557 4.487 0.939 9.329-0.386 13.105-2.875 5.074-3.344 8.318-8.897 10.184-14.583l1.898 0.804c-1.195 24.528-5.439 47.354-11.456 71.101-6.497 5.204-11.174 11.498-15.748 18.357-0.647-3.813-1.886-7.34-3.165-10.978-10.201-36.869-30.565-68.132-52.452-99.033-5.399-7.623-10.51-15.991-16.537-23.103 0.088-1.053-28.268-51.228-31.144-56.435-0.856-1.721-1.306-3.693-1.852-5.533z" fill="#67150A"/> <path transform="scale(4)" d="m628.7 430.82c5.276 0.256 10.786-0.193 16.009 0.414 8.063 0.936 16.154 4.84 21.63 10.856 4.28 4.702 6.999 11.701 6.588 18.107-0.537 8.373-4.902 16.393-11.336 21.725-8.357 6.927-20.674 9.559-31.304 8.399-10.206-1.114-20.401-6.638-26.782-14.665-4.355-5.479-6.884-13.206-5.837-20.233 0.745-4.995 2.942-9.401 5.281-13.805 9.704-1.352 17.723-5.375 25.751-10.798z" fill="#FE8B79"/> <path transform="scale(4)" d="m404.94 441.36c1.055 1.991 2.845 3.707 4.238 5.48 1.999 2.544 3.763 5.466 4.899 8.502 1.9 5.077 1.344 12.448-0.993 17.275-3.978 8.218-12.958 13.914-21.329 16.814-12.148 4.209-26.148 1.913-37.424-3.791-8.251-4.174-15.182-11.324-18.004-20.261-1.813-5.74-0.703-12.425 2.109-17.659 4.332-8.065 12.129-13.595 20.824-16.117 7.468-2.167 15.012-2.332 22.712-2.716 7.057 5.612 14.185 10.078 22.968 12.473z" fill="#FE8B79"/> <path transform="scale(4)" d="m548.29 372.86c4.033-15.806 12.638-30.544 26.918-39.152 10.42-6.281 23.934-8.636 35.767-5.501 15.11 4.004 26.559 16.68 33.858 29.942 3.469 6.302 6.709 14.236 6.819 21.52-0.234 14.68-3.531 28.377-12.474 40.352-2.334 3.125-5.311 5.849-8.106 8.563l-2.363 2.237c-8.028 5.423-16.047 9.446-25.751 10.798l-11.317-0.535c-14.341-1.892-25.328-10.114-33.916-21.416-7.466-9.826-12.672-25.627-10.924-37.921 0.423-2.977 0.728-5.973 1.489-8.887z" fill="#FEFEFE"/> <path transform="scale(4)" d="m595.35 345.18c5.84-0.587 12.988 1.041 18.013 4.088 10.18 6.173 17.226 15.51 20.081 27.066 3.044 12.318-0.054 23.57-6.523 34.096-6.191 10.074-15.919 14.466-26.922 17.07-8.833 0.088-16.951-1.149-24.276-6.462-8.783-6.369-14.616-17.165-16.129-27.846-1.74-12.284 1.768-23.867 9.237-33.662 6.862-8.997 15.566-12.864 26.519-14.35z" fill="#892C15"/> <path transform="scale(4)" d="m605.83 363.16c3.634-2.777 4.731-3.347 9.279-2.711 3.945 0.552 7.123 2.27 9.495 5.51 2.256 3.081 3.805 7.594 3.125 11.427-0.43 2.417-1.642 4.451-3.122 6.367l-1.038 0.372c-3.107 0.784-6.242 1.485-9.321 0.206-4.18-1.736-7.382-5.301-9.076-9.462-1.865-4.579-1.136-7.281 0.658-11.709z" fill="#FEFEFE"/> <path transform="scale(4)" d="m623.57 384.12 0.887 0.646c0.099 2.646-0.071 4.983-0.675 7.564-1.971 8.42-7.611 16.137-15.087 20.498-6.363 3.713-14.526 3.86-21.507 1.99-6.602-1.769-12.104-5.848-15.499-11.833-3.983-7.021-5.756-16.279-3.517-24.177l0.242-0.81c0.666-2.295 1.493-4.379 2.608-6.5 2.852-5.421 8.632-9.794 14.507-11.516 7.625-2.235 13.553-0.329 20.302 3.173-1.794 4.428-2.523 7.13-0.658 11.709 1.694 4.161 4.896 7.726 9.076 9.462 3.079 1.279 6.214 0.578 9.321-0.206z"/> <path transform="scale(4)" d="m365.73 374.06c0.982-4.719 2.89-9.653 4.971-13.995 7.094-14.808 18.668-26.167 34.279-31.54 11.083-3.815 23.021-1.566 33.268 3.563 14.691 7.354 23.904 23.029 28.992 38.062 3.828 17.93 1.586 35.071-8.489 50.526-7.095 10.885-18.376 18.308-31.065 20.809-7.301 1.439-15.405 0.864-22.753-0.121-8.783-2.395-15.911-6.861-22.968-12.473-2.793-2.811-5.468-6.042-7.636-9.36-8.905-13.633-11.847-29.509-8.599-45.471z" fill="#FEFEFE"/> <path transform="scale(4)" d="m417.43 344.69c2.612 0.052 5.059 0.257 7.602 0.861 10.799 2.567 19.639 9.236 25.429 18.682 5.837 9.52 8.579 21.921 5.863 32.889l-0.229 0.878c-1.349 5.281-3.432 10.386-6.663 14.816-7.244 9.932-16.713 14.478-28.638 16.354-7.968-0.305-15.38-1.247-21.995-6.105-9.142-6.713-15.622-16.626-17.403-27.918-1.883-11.94 0.646-24.824 7.877-34.653 7.107-9.659 16.57-13.998 28.157-15.804z" fill="#892C15"/> <path transform="scale(4)" d="m451.37 379.57c1.364 2.778 0.208 9.041-0.395 12.181-1.651 8.596-6.272 16.169-13.518 21.138-6.363 4.363-15.489 5.786-22.995 4.189-7.18-1.528-14.385-6.615-18.305-12.822-4.297-6.804-5.597-15.536-3.739-23.333 2.085-8.752 6.545-15.055 14.234-19.636 6.279-3.741 13.799-5.035 20.896-3.125 2.597 0.699 4.824 1.242 6.984 2.947 4.288-0.248 8.183 0.663 11.407 3.647 3.643 3.371 5.448 7.572 5.491 12.495l-0.06 2.319z"/> <path transform="scale(4)" d="m434.53 361.11c4.288-0.248 8.183 0.663 11.407 3.647 3.643 3.371 5.448 7.572 5.491 12.495l-0.06 2.319c-1.267 2.157-2.947 4.709-5.091 6.067-2.324 1.471-4.935 1.485-7.535 0.916-3.991-0.875-7.708-4.32-9.829-7.689-1.948-3.095-2.603-6.246-1.584-9.804 1.16-4.053 3.719-6.021 7.201-7.951z" fill="#FEFEFE"/> </svg>