<?xml version="1.0" encoding="UTF-8" standalone="no"?>
<!-- Created with Inkscape (http://www.inkscape.org/) -->

<svg
   xmlns:dc="http://purl.org/dc/elements/1.1/"
   xmlns:cc="http://creativecommons.org/ns#"
   xmlns:rdf="http://www.w3.org/1999/02/22-rdf-syntax-ns#"
   xmlns:svg="http://www.w3.org/2000/svg"
   xmlns="http://www.w3.org/2000/svg"
   xmlns:xlink="http://www.w3.org/1999/xlink"
   xmlns:sodipodi="http://sodipodi.sourceforge.net/DTD/sodipodi-0.dtd"
   xmlns:inkscape="http://www.inkscape.org/namespaces/inkscape"
   width="500"
   height="500"
   viewBox="0 0 499.9999 500"
   id="svg2"
   version="1.1"
   inkscape:version="0.91 r13725"
   sodipodi:docname="HUE 16 gradientl.svg"
   enable-background="new">
  <title
     id="title4283">Color wheel with gradient</title>
  <defs
     id="defs4">
    <linearGradient
       id="linearGradient5249"
       inkscape:collect="always">
      <stop
         id="stop5251"
         offset="0"
         style="stop-color:#ffffff;stop-opacity:0" />
      <stop
         style="stop-color:#000000;stop-opacity:0"
         offset="0.5599206"
         id="stop5253" />
      <stop
         id="stop5255"
         offset="1"
         style="stop-color:#ffffff;stop-opacity:1" />
    </linearGradient>
    <linearGradient
       inkscape:collect="always"
       id="linearGradient4526">
      <stop
         style="stop-color:#ffffff;stop-opacity:1"
         offset="0"
         id="stop4528" />
      <stop
         id="stop4534"
         offset="0.2"
         style="stop-color:#000000;stop-opacity:1" />
      <stop
         style="stop-color:#ffffff;stop-opacity:0"
         offset="1"
         id="stop4530" />
    </linearGradient>
    <radialGradient
       inkscape:collect="always"
       xlink:href="#linearGradient4526"
       id="radialGradient4532"
       cx="525.8691"
       cy="832.2352"
       fx="525.8691"
       fy="832.2352"
       r="249.9173"
       gradientTransform="matrix(0.8285146,-7.972113e-8,5.483103e-8,0.8283731,-66.05683,-501.634)"
       gradientUnits="userSpaceOnUse" />
    <radialGradient
       inkscape:collect="always"
       xlink:href="#linearGradient5249"
       id="radialGradient5247"
       gradientUnits="userSpaceOnUse"
       gradientTransform="matrix(1.080026,0,-3.101155e-8,0.9998292,-198.319,-644.3258)"
       cx="525.8691"
       cy="832.2352"
       fx="525.8691"
       fy="832.2352"
       r="249.9173" />
    <filter
       inkscape:collect="always"
       style="color-interpolation-filters:sRGB"
       id="filter5265">
      <feBlend
         inkscape:collect="always"
         mode="multiply"
         in2="BackgroundImage"
         id="feBlend5267" />
    </filter>
    <filter
       inkscape:collect="always"
       style="color-interpolation-filters:sRGB"
       id="filter5277">
      <feBlend
         inkscape:collect="always"
         mode="lighten"
         in2="BackgroundImage"
         id="feBlend5279" />
    </filter>
  </defs>
  <sodipodi:namedview
     id="base"
     pagecolor="#ffffff"
     bordercolor="#666666"
     borderopacity="1.0"
     inkscape:pageopacity="0.0"
     inkscape:pageshadow="2"
     inkscape:zoom="0.35"
     inkscape:cx="375"
     inkscape:cy="520"
     inkscape:document-units="px"
     inkscape:current-layer="layer4"
     showgrid="false"
     inkscape:snap-object-midpoints="true"
     fit-margin-top="0"
     fit-margin-left="0"
     fit-margin-right="0"
     fit-margin-bottom="0"
     units="px"
     showguides="false" />
  <metadata
     id="metadata7">
    <rdf:RDF>
      <cc:Work
         rdf:about="">
        <dc:format>image/svg+xml</dc:format>
        <dc:type
           rdf:resource="http://purl.org/dc/dcmitype/StillImage" />
        <dc:title>Color wheel with gradient</dc:title>
        <dc:date>2016-01-25</dc:date>
        <dc:creator>
          <cc:Agent>
            <dc:title>krzysiu.net</dc:title>
          </cc:Agent>
        </dc:creator>
        <dc:publisher>
          <cc:Agent>
            <dc:title>OpenClipart.org</dc:title>
          </cc:Agent>
        </dc:publisher>
        <dc:subject>
          <rdf:Bag>
            <rdf:li>wheel</rdf:li>
            <rdf:li>color</rdf:li>
            <rdf:li>hue</rdf:li>
            <rdf:li>palette</rdf:li>
            <rdf:li>HSL</rdf:li>
            <rdf:li>lightness</rdf:li>
            <rdf:li>gradient</rdf:li>
          </rdf:Bag>
        </dc:subject>
        <dc:description>Color wheel - 16 colors, H - different, S - 1.0, L -gradient</dc:description>
        <cc:license
           rdf:resource="http://creativecommons.org/publicdomain/zero/1.0/" />
      </cc:Work>
      <cc:License
         rdf:about="http://creativecommons.org/publicdomain/zero/1.0/">
        <cc:permits
           rdf:resource="http://creativecommons.org/ns#Reproduction" />
        <cc:permits
           rdf:resource="http://creativecommons.org/ns#Distribution" />
        <cc:permits
           rdf:resource="http://creativecommons.org/ns#DerivativeWorks" />
      </cc:License>
    </rdf:RDF>
  </metadata>
  <g
     inkscape:label="Color wheel"
     inkscape:groupmode="layer"
     id="layer1"
     transform="translate(-119.7118,62.29805)"
     style="display:inline"
     sodipodi:insensitive="true">
    <path
       style="opacity:1;fill:#de00ff;fill-opacity:1;stroke:none;stroke-width:1.5;stroke-linecap:butt;stroke-linejoin:round;stroke-miterlimit:4;stroke-dasharray:none;stroke-dashoffset:198.3999939;stroke-opacity:1"
       d="m 186.7301,18.21121 c -19.6997,21.55847 -35.9349,46.37037 -47.1185,73.37807 -0.082,1.6008 2.2125,1.4845 3.23,2.2112 52.2213,21.61982 104.3966,43.35172 156.6661,64.85402 1.4657,0.1258 1.742,-1.8609 2.4601,-2.7829 3.6223,-7.554 8.4166,-14.436 14.1743,-20.5054 0.5583,-1.516 -1.6442,-2.2972 -2.3505,-3.4223 C 275.8822,94.03418 237.9728,56.12438 200.0634,18.21466 c -2.5526,-0.53679 -4.8545,-5.7138 -7.4849,-5.85929 -1.7778,0.14671 -4.1508,5.32598 -5.8484,5.85584 z"
       id="path4482"
       inkscape:connector-curvature="0"
       sodipodi:nodetypes="cccccccccc" />
    <path
       style="opacity:1;fill:#ff00c0;fill-opacity:1;stroke:none;stroke-width:1.5;stroke-linecap:butt;stroke-linejoin:round;stroke-miterlimit:4;stroke-dasharray:none;stroke-dashoffset:198.3999939;stroke-opacity:1"
       d="m 273.438,-42.26724 c -16.0567,6.86698 -31.563,15.1013 -45.8781,25.131 -12.0423,8.3914 -23.5447,17.70857 -33.7711,28.21476 -0.2741,1.41366 1.7157,2.14549 2.4129,3.23077 39.9575,39.96909 79.9149,79.93809 119.8724,119.90721 1.4203,0.6141 2.3605,-1.3488 3.4745,-1.9847 5.8039,-5.3923 12.6562,-9.4784 19.7417,-12.9427 1.1486,-0.4227 1.6293,-1.7241 0.7801,-2.7207 -21.829,-52.81782 -43.6692,-105.63132 -65.5911,-158.41047 -0.2934,-0.40933 -0.5475,-0.4963 -1.0413,-0.42517 z"
       id="path4452"
       inkscape:connector-curvature="0" />
    <path
       style="opacity:1;fill:#ff0060;fill-opacity:1;stroke:none;stroke-width:1.5;stroke-linecap:butt;stroke-linejoin:round;stroke-miterlimit:4;stroke-dasharray:none;stroke-dashoffset:198.3999939;stroke-opacity:1"
       d="m 368.8013,-61.64905 c -22.8591,0.25951 -45.7188,3.32502 -67.6932,9.69191 -8.837,2.54287 -17.5422,5.55484 -26.0444,9.05806 -1.0725,1.12495 0.5159,2.5954 0.7387,3.83767 21.4934,52.21342 43.0724,104.39289 64.8438,156.49051 0.6008,1.7302 2.4355,0.2607 3.5597,-0.029 7.2844,-2.5182 14.9125,-4.0984 22.6623,-4.38 1.0418,0.014 3.0301,0.3313 2.7558,-1.306 0,-57.52142 0,-115.0427 0,-172.56401 -0.102,-0.49398 -0.3362,-0.6985 -0.8227,-0.79954 z"
       id="path4454"
       inkscape:connector-curvature="0" />
    <path
       style="opacity:1;fill:#0042ff;fill-opacity:1;stroke:none;stroke-width:1.5;stroke-linecap:butt;stroke-linejoin:round;stroke-miterlimit:4;stroke-dasharray:none;stroke-dashoffset:198.3999939;stroke-opacity:1"
       d="m 299.7434,216.8359 c -52.6495,21.6498 -105.2164,43.5047 -157.8146,65.2792 -1.067,0.4185 -2.8198,1.2065 -1.973,2.6274 3.9283,9.21 8.3744,18.2132 13.2956,26.9345 10.7853,18.7122 23.7957,36.232 39.2008,51.4027 1.2484,1.2331 2.3037,-0.859 3.2136,-1.5542 40.2119,-40.0207 80.2754,-80.1905 120.4068,-120.2925 0.6316,-1.4171 -1.3687,-2.2874 -2.0198,-3.3875 -5.5166,-6.0598 -9.7479,-13.1753 -13.283,-20.5553 -0.2381,-0.3452 -0.5979,-0.5783 -1.0264,-0.4543 z"
       id="path4476"
       inkscape:connector-curvature="0" />
    <path
       style="opacity:1;fill:#1e00ff;fill-opacity:1;stroke:none;stroke-width:1.5;stroke-linecap:butt;stroke-linejoin:round;stroke-miterlimit:4;stroke-dasharray:none;stroke-dashoffset:198.3999939;stroke-opacity:1"
       d="m 120.5217,187.9169 c -0.5513,2.1729 -0.1011,4.556 -0.1985,6.81 0.8487,27.6097 6.2231,55.0851 16.0019,80.9272 1.021,2.2506 1.457,4.8511 2.9535,6.8452 1.3857,0.5567 2.7721,-0.8536 4.1334,-1.1478 52.0918,-21.4835 104.1714,-42.9971 156.1849,-64.6685 1.1118,-0.971 -0.1974,-2.4808 -0.3698,-3.6312 -2.7159,-7.901 -4.4671,-16.2401 -4.3544,-24.5657 -0.5466,-1.5015 -2.612,-0.5192 -3.8305,-0.8001 -56.6527,0 -113.3055,0 -169.9582,0 -0.1874,0.077 -0.3748,0.1539 -0.5623,0.2309 z"
       id="path4478"
       inkscape:connector-curvature="0" />
    <path
       style="opacity:1;fill:#7e00ff;fill-opacity:1;stroke:none;stroke-width:1.5;stroke-linecap:butt;stroke-linejoin:round;stroke-miterlimit:4;stroke-dasharray:none;stroke-dashoffset:198.3999939;stroke-opacity:1"
       d="m 139.9277,92.80618 c -1.5573,0.524 -1.6624,2.6395 -2.3877,3.8975 -11.2493,28.74852 -17.2394,59.62782 -17.2471,90.48112 0.7948,1.2083 2.7329,0.3094 3.9932,0.5861 56.5696,0 113.1391,0 169.7086,0 1.5129,-0.6192 0.5907,-2.8104 0.9525,-4.1097 0.3521,-8.1047 2.3577,-16.0814 5.1415,-23.7115 0.1982,-1.5313 -1.9993,-1.5159 -2.9501,-2.1599 -52.2544,-21.6839 -104.5172,-43.3489 -156.8163,-64.92452 -0.1252,-0.048 -0.261,-0.068 -0.3946,-0.059 z"
       id="path4480"
       inkscape:connector-curvature="0" />
    <path
       style="opacity:1;fill:#00a2ff;fill-opacity:1;stroke:none;stroke-width:1.5;stroke-linecap:butt;stroke-linejoin:round;stroke-miterlimit:4;stroke-dasharray:none;stroke-dashoffset:198.3999939;stroke-opacity:1"
       d="m 316.3855,241.2428 c -40.3249,40.9698 -81.2537,81.4137 -122.2811,122.8443 4.3496,7.9933 15.1521,12.9927 21.8527,19.2379 17.2922,13.3757 36.878,26.4535 57.3329,34.1809 3.4353,-1.9007 5.0827,-11.7586 7.4581,-16.0803 19.8657,-47.8852 39.9918,-96.2984 59.8231,-144.1979 -7.1392,-5.5008 -16.8907,-8.6393 -23.0668,-15.996 l -1.1189,0.011 z"
       id="path4484"
       inkscape:connector-curvature="0"
       sodipodi:nodetypes="ccccccccc" />
    <path
       style="opacity:1;fill:#00fcff;fill-opacity:1;stroke:none;stroke-width:1.5;stroke-linecap:butt;stroke-linejoin:round;stroke-miterlimit:4;stroke-dasharray:none;stroke-dashoffset:198.3999939;stroke-opacity:1"
       d="m 341.1393,257.513 c -21.9119,52.9078 -44.3932,107.4251 -66.3076,160.332 17.2321,8.8889 37.9153,12.3612 57.3211,15.9899 12.1967,1.4366 25.1459,4.5147 36.9364,2.6981 l 0.2236,-173.3928 c -9.1592,-0.9408 -19.0346,-4.4358 -28.1731,-5.6272 z"
       id="path4486"
       inkscape:connector-curvature="0"
       sodipodi:nodetypes="ccccccc" />
    <path
       style="opacity:1;fill:#ff0000;fill-opacity:1;stroke:none;stroke-width:1.5;stroke-linecap:butt;stroke-linejoin:round;stroke-miterlimit:4;stroke-dasharray:none;stroke-dashoffset:198.3999939;stroke-opacity:1"
       d="m 369.7774,-61.3388 c -0.5681,2.19464 -0.071,4.60663 -0.2383,6.88314 0,55.5584 0,111.11674 0,166.67516 0.548,1.4999 2.6419,0.5213 3.8281,0.8208 8.2034,0.4027 16.3407,2.3316 24.068,5.2357 1.5178,0 1.5841,-2.0949 2.2303,-3.094 21.6627,-52.19102 43.2856,-104.39935 64.7969,-156.65266 0.52,-1.13203 -0.5862,-1.86586 -1.5834,-2.01768 -29.3707,-11.67683 -60.9072,-18.06641 -92.5393,-18.0808 -0.1875,0.0768 -0.3749,0.15356 -0.5623,0.23034 z"
       id="path4456"
       inkscape:connector-curvature="0" />
    <path
       style="opacity:1;fill:#ff6000;fill-opacity:1;stroke:none;stroke-width:1.5;stroke-linecap:butt;stroke-linejoin:round;stroke-miterlimit:4;stroke-dasharray:none;stroke-dashoffset:198.3999939;stroke-opacity:1"
       d="m 465.2077,-41.94219 c -2.2014,4.45009 -3.9209,9.17596 -5.9223,13.73677 -20.1366,48.2445 -40.2706,96.4912 -60.1157,144.85642 -0.642,0.8917 -0.4941,2.1087 0.638,2.4763 5.601,2.9824 11.2269,5.9985 16.2069,9.9743 2.1946,1.6063 4.0829,3.5493 6.1657,5.2246 1.4594,0.1403 2.235,-1.8488 3.3741,-2.6089 39.9434,-39.93212 79.8868,-79.86422 119.8302,-119.79636 0.6836,-1.46548 -1.5257,-2.18847 -2.2137,-3.23209 -19.4902,-18.77686 -41.9563,-34.47958 -66.4518,-46.01583 -3.6226,-1.63273 -7.169,-3.51334 -10.9304,-4.79327 -0.1937,0.0594 -0.3873,0.1187 -0.581,0.17806 z"
       id="path4458"
       inkscape:connector-curvature="0" />
    <path
       style="opacity:1;fill:#ffc000;fill-opacity:1;stroke:none;stroke-width:1.5;stroke-linecap:butt;stroke-linejoin:round;stroke-miterlimit:4;stroke-dasharray:none;stroke-dashoffset:198.3999939;stroke-opacity:1"
       d="m 545.5336,12.01416 c -16.3127,15.99299 -32.3925,32.23932 -48.5867,48.35882 -24.6173,24.6071 -49.2264,49.22342 -73.8401,73.83462 -0.6405,1.4706 1.4923,2.3677 2.1279,3.5212 5.3143,5.8651 9.4771,12.6514 12.8887,19.7644 0.2876,1.0052 1.2974,1.5822 2.2225,0.8881 52.9576,-21.8541 105.896,-43.7543 158.7978,-65.74192 1.1629,-0.9841 -0.3393,-2.4364 -0.5656,-3.5674 -12.0606,-27.9898 -29.2302,-53.83521 -50.6306,-75.55591 -0.7445,-0.52345 -1.3314,-1.8454 -2.4139,-1.50191 z"
       id="path4460"
       inkscape:connector-curvature="0" />
    <path
       style="opacity:1;fill:#deff00;fill-opacity:1;stroke:none;stroke-width:1.5;stroke-linecap:butt;stroke-linejoin:round;stroke-miterlimit:4;stroke-dasharray:none;stroke-dashoffset:198.3999939;stroke-opacity:1"
       d="m 599.2182,92.78298 c -28.5477,11.65092 -57.0095,23.54802 -85.5149,35.31562 -24.1621,10.0763 -48.4249,19.9171 -72.4621,30.2886 -0.8772,0.4154 -2.6721,0.9088 -1.8817,2.2353 2.8369,7.5654 4.6125,15.5394 5.0124,23.6054 0.2851,1.225 -0.4102,3.7211 1.5191,3.543 57.4749,0 114.9499,0 172.4248,0 1.5154,-0.5527 0.4407,-2.5782 0.6379,-3.7906 -0.222,-13.4283 -1.4208,-26.8818 -3.8722,-40.1072 -3.0962,-16.921 -7.7426,-33.6053 -14.374,-49.48962 -0.3435,-0.6142 -0.6118,-1.6259 -1.4893,-1.6005 z"
       id="path4462"
       inkscape:connector-curvature="0" />
    <path
       style="opacity:1;fill:#7eff00;fill-opacity:1;stroke:none;stroke-width:1.5;stroke-linecap:butt;stroke-linejoin:round;stroke-miterlimit:4;stroke-dasharray:none;stroke-dashoffset:198.3999939;stroke-opacity:1"
       d="m 444.8246,187.9159 c -0.6689,2.8508 -0.5073,5.8893 -0.9578,8.8095 -0.7259,6.4586 -2.4865,12.7222 -4.7317,18.7655 0.4027,1.4481 2.4108,1.5058 3.5182,2.2592 30.3522,12.9553 60.9151,25.4121 91.3822,38.0933 21.7472,8.9937 43.4787,18.0262 65.2502,26.9607 1.5988,0.028 1.4585,-2.2332 2.1633,-3.2687 11.3724,-28.8811 17.4358,-59.8593 17.5495,-90.9088 -0.5239,-1.5226 -2.6123,-0.5332 -3.83,-0.8165 -56.5939,-0.042 -113.1877,-0.083 -169.7816,-0.1246 -0.1874,0.077 -0.3749,0.1536 -0.5623,0.2304 z"
       id="path4464"
       inkscape:connector-curvature="0" />
    <path
       style="opacity:1;fill:#1eff00;fill-opacity:1;stroke:none;stroke-width:1.5;stroke-linecap:butt;stroke-linejoin:round;stroke-miterlimit:4;stroke-dasharray:none;stroke-dashoffset:198.3999939;stroke-opacity:1"
       d="m 439.3477,216.8478 c -1.6855,0.6693 -1.8294,2.9159 -2.7612,4.2911 -3.5447,6.9229 -8.0696,13.3645 -13.5127,18.9493 -0.5911,1.5148 1.6338,2.3098 2.3386,3.4347 40.0006,40.0195 80.001,80.0391 120.0013,120.0589 1.4394,0.6865 2.1641,-1.4728 3.1913,-2.1461 20.4646,-21.2489 37.2222,-46.0576 49.1433,-73.0506 0.5096,-1.562 1.7587,-3.0524 1.6804,-4.7129 -1.4872,-1.4552 -3.7432,-1.8874 -5.5573,-2.8607 -36.3792,-15.3695 -72.9414,-30.3028 -109.4142,-45.449 -14.9412,-6.1618 -29.8587,-12.3919 -44.818,-18.5029 -0.096,-0.019 -0.1945,-0.022 -0.2915,-0.012 z"
       id="path4466"
       inkscape:connector-curvature="0" />
    <path
       style="opacity:1;fill:#00ffa2;fill-opacity:1;stroke:none;stroke-width:1.5;stroke-linecap:butt;stroke-linejoin:round;stroke-miterlimit:4;stroke-dasharray:none;stroke-dashoffset:198.3999939;stroke-opacity:1"
       d="m 395.5596,258.3215 c -8.013,2.7251 -17.6063,3.3297 -25.5414,4.9602 l 0.2372,173.3295 c 21.913,1.0457 45.5061,-3.1573 67.023,-9.5425 8.104,-2.9735 20.0613,-3.9831 26.9475,-8.9806 -11.4236,-29.6562 -24.4318,-59.4118 -36.0422,-88.8652 -11.0855,-23.0865 -18.6307,-47.9091 -30.275,-71.4224 -0.2112,-0.1729 -2.0732,0.4883 -2.3491,0.521 z"
       id="path4488"
       inkscape:connector-curvature="0"
       sodipodi:nodetypes="cccccccc" />
    <path
       style="opacity:1;fill:#00ff42;fill-opacity:1;stroke:none;stroke-width:1.5;stroke-linecap:butt;stroke-linejoin:round;stroke-miterlimit:4;stroke-dasharray:none;stroke-dashoffset:198.3999939;stroke-opacity:1"
       d="m 415.2973,247.1329 c -4.4021,4.7885 -11.5736,5.9772 -16.5988,10.1144 21.4287,52.8263 45.1687,107.6587 66.5571,160.5239 21.0805,-6.4268 40.1653,-20.8805 57.9883,-34.3743 7.2134,-6.2606 16.3727,-11.9155 21.9499,-19.1239 -40.6903,-40.7001 -81.8387,-82.1139 -122.5304,-122.8125 -2.8504,0.1617 -4.844,4.3081 -7.3661,5.6724 z"
       id="path4490"
       inkscape:connector-curvature="0"
       sodipodi:nodetypes="ccccccc" />
  </g>
  <g
     inkscape:groupmode="layer"
     id="layer4"
     inkscape:label="Gradient wheel"
     style="display:inline;filter:url(#filter5265)">
    <path
       transform="translate(-119.7118,62.29805)"
       style="display:inline;opacity:1;fill:url(#radialGradient4532);fill-opacity:1;stroke:none;stroke-width:1;stroke-linecap:butt;stroke-linejoin:round;stroke-miterlimit:4;stroke-dasharray:none;stroke-dashoffset:198.3999939;stroke-opacity:1"
       d="M 371.454,-61.60061 A 249.3543,249.343 0.0192278 0 0 274.2097,-42.62604 249.3543,249.343 0.0192278 0 0 139.2606,283.1551 249.3543,249.343 0.0192278 0 0 465.0574,418.0982 249.3543,249.343 0.0192278 0 0 600.0067,92.31735 249.3543,249.343 0.0192278 0 0 371.454,-61.60061 Z m -1.2736,174.55851 a 74.78455,74.78119 0.0192278 0 1 68.5449,46.1601 74.78455,74.78119 0.0192278 0 1 -40.4725,97.7071 74.78455,74.78119 0.0192278 0 1 -97.7111,-40.4706 74.78455,74.78119 0.0192278 0 1 40.4728,-97.7072 74.78455,74.78119 0.0192278 0 1 29.1659,-5.6894 z"
       id="path4494"
       inkscape:connector-curvature="0" />
  </g>
  <g
     style="display:inline;filter:url(#filter5277)"
     inkscape:label="Gradient wheel copy"
     id="g5239"
     inkscape:groupmode="layer"
     sodipodi:insensitive="true">
    <path
       inkscape:connector-curvature="0"
       id="path5241"
       d="M 371.454,-61.60061 A 249.3543,249.343 0.0192278 0 0 274.2097,-42.62604 249.3543,249.343 0.0192278 0 0 139.2606,283.1551 249.3543,249.343 0.0192278 0 0 465.0574,418.0982 249.3543,249.343 0.0192278 0 0 600.0067,92.31735 249.3543,249.343 0.0192278 0 0 371.454,-61.60061 Z m -1.2736,174.55851 a 74.78455,74.78119 0.0192278 0 1 68.5449,46.1601 74.78455,74.78119 0.0192278 0 1 -40.4725,97.7071 74.78455,74.78119 0.0192278 0 1 -97.7111,-40.4706 74.78455,74.78119 0.0192278 0 1 40.4728,-97.7072 74.78455,74.78119 0.0192278 0 1 29.1659,-5.6894 z"
       style="display:inline;opacity:1;fill:url(#radialGradient5247);fill-opacity:1;stroke:none;stroke-width:1;stroke-linecap:butt;stroke-linejoin:round;stroke-miterlimit:4;stroke-dasharray:none;stroke-dashoffset:198.3999939;stroke-opacity:1"
       transform="translate(-119.7118,62.29805)" />
  </g>
  <g
     inkscape:groupmode="layer"
     id="layer5"
     inkscape:label="Lines"
     style="display:inline"
     sodipodi:insensitive="true">
    <g
       id="g4309"
       style="display:inline;stroke:#000000;stroke-width:0.519562"
       transform="matrix(0.5524249,1.333612,-1.333672,0.5524,440.7687,-286.6854)">
      <path
         id="circle4138"
         d="M 465.6803,264.4432 A 172.7361,172.7361 0 0 1 292.9442,437.1793 172.7361,172.7361 0 0 1 120.2081,264.4432 172.7361,172.7361 0 0 1 292.9442,91.70711 172.7361,172.7361 0 0 1 465.6803,264.4432 Z"
         style="opacity:1;fill:none;fill-opacity:1;stroke:#000000;stroke-width:0.519562;stroke-linecap:butt;stroke-linejoin:round;stroke-miterlimit:4;stroke-dasharray:none;stroke-dashoffset:198.3999939;stroke-opacity:1"
         inkscape:connector-curvature="0" />
      <path
         sodipodi:nodetypes="cccc"
         style="fill:none;fill-rule:evenodd;stroke:#000000;stroke-width:0.519562;stroke-linecap:butt;stroke-linejoin:miter;stroke-opacity:1"
         d="m 226.7827,424.171 c 15.4494,-37.2981 30.8988,-74.5963 46.3482,-111.8944 m 39.6345,-95.6861 c 15.4468,-37.2918 30.8935,-74.5835 46.3403,-111.8752"
         id="path4189"
         inkscape:connector-curvature="0" />
      <path
         inkscape:connector-curvature="0"
         style="opacity:1;fill:none;fill-opacity:1;stroke:#000000;stroke-width:0.519562;stroke-linecap:butt;stroke-linejoin:round;stroke-miterlimit:4;stroke-dasharray:none;stroke-dashoffset:198.3999939;stroke-opacity:1"
         d="m 344.7501,264.4432 a 51.80578,51.80578 0 0 1 -51.8058,51.8058 51.80578,51.80578 0 0 1 -51.8058,-51.8058 51.80578,51.80578 0 0 1 51.8058,-51.8058 51.80578,51.80578 0 0 1 51.8058,51.8058 z"
         id="path4289" />
      <path
         inkscape:connector-curvature="0"
         id="path4295"
         d="m 133.2092,198.2787 c 37.2997,15.4501 74.5996,30.9002 111.8994,46.3503 m 95.6904,39.6362 c 37.2935,15.4475 74.5869,30.8949 111.8802,46.3424"
         style="fill:none;fill-rule:evenodd;stroke:#000000;stroke-width:0.519562;stroke-linecap:butt;stroke-linejoin:miter;stroke-opacity:1"
         sodipodi:nodetypes="cccc" />
      <path
         inkscape:connector-curvature="0"
         id="path4297"
         d="m 133.2112,330.6024 c 37.2993,-15.4488 74.5987,-30.8978 111.898,-46.3466 m 95.6892,-39.6332 c 37.293,-15.4463 74.5858,-30.8926 111.8788,-46.3387"
         style="fill:none;fill-rule:evenodd;stroke:#000000;stroke-width:0.519562;stroke-linecap:butt;stroke-linejoin:miter;stroke-opacity:1"
         sodipodi:nodetypes="cccc" />
      <path
         sodipodi:nodetypes="cccc"
         style="fill:none;fill-rule:evenodd;stroke:#000000;stroke-width:0.519562;stroke-linecap:butt;stroke-linejoin:miter;stroke-opacity:1"
         d="m 226.7777,104.7132 c 15.4505,37.2986 30.9011,74.5972 46.3517,111.8959 m 39.6376,95.6873 c 15.4479,37.2923 30.8959,74.5845 46.3437,111.8767"
         id="path4299"
         inkscape:connector-curvature="0" />
      <path
         inkscape:connector-curvature="0"
         id="path4301"
         d="m 170.691,386.6924 c 28.5474,-28.5465 57.0948,-57.093 85.6422,-85.6395 m 73.2366,-73.2342 c 28.5426,-28.5417 57.0851,-57.0833 85.6276,-85.6248"
         style="fill:none;fill-rule:evenodd;stroke:#000000;stroke-width:0.519562;stroke-linecap:butt;stroke-linejoin:miter;stroke-opacity:1"
         sodipodi:nodetypes="cccc" />
      <path
         sodipodi:nodetypes="cccc"
         style="fill:none;fill-rule:evenodd;stroke:#000000;stroke-width:0.519562;stroke-linecap:butt;stroke-linejoin:miter;stroke-opacity:1"
         d="m 170.6872,142.19 c 28.5482,28.5473 57.0966,57.0948 85.6449,85.6422 m 73.2389,73.2366 c 28.5435,28.5425 57.0869,57.085 85.6302,85.6275"
         id="path4303"
         inkscape:connector-curvature="0" />
      <path
         sodipodi:nodetypes="cccc"
         style="fill:none;fill-rule:evenodd;stroke:#000000;stroke-width:0.519562;stroke-linecap:butt;stroke-linejoin:miter;stroke-opacity:1"
         d="m 120.0494,264.4403 c 40.3727,7e-4 80.7455,0 121.1182,0 m 103.5739,0 c 40.366,6e-4 80.7317,0 121.0975,0"
         id="path4305"
         inkscape:connector-curvature="0" />
      <path
         inkscape:connector-curvature="0"
         id="path4307"
         d="m 292.9415,91.55385 c 5e-4,40.37145 0,80.74285 0,121.11445 m 0,103.5705 c 6e-4,40.3646 0,80.7292 0,121.0937"
         style="fill:none;fill-rule:evenodd;stroke:#000000;stroke-width:0.519562;stroke-linecap:butt;stroke-linejoin:miter;stroke-opacity:1"
         sodipodi:nodetypes="cccc" />
    </g>
  </g>
</svg>
